<svg id="headset" xmlns="http://www.w3.org/2000/svg" viewBox="0 0 135.65 121.67">
    <title>headset</title>
    <path d="M364.28,226.68V173.34c18.43-.78,25.53,5.84,25.7,23.51q0,4.08,0,8.17C389.91,223.75,384.07,228.79,364.28,226.68Z" transform="translate(-254.35 -135.02)" />
    <path d="M280.11,226.59c-17.6,2-25.43-4.53-25.72-21-.06-3.53,0-7.06,0-10.59.2-15.82,9-23.37,25.73-21.49Z" transform="translate(-254.35 -135.02)" />
    <path d="M373.45,168.18c-6.06,1.85-9.45-.13-13.25-4.9-20.87-26.25-57.07-25.07-77.47,1.7-2.1,2.75-6.83,3.49-11.4,5.67,2.59-17.23,24.55-33,46.61-35.38S366.05,148.06,373.45,168.18Z" transform="translate(-254.35 -135.02)" />
    <path d="M372.24,232.86c-2.65,8.93-8.16,12.95-16.18,13.23-7.26.26-13.58,1.4-18.89,7.34-4.52,5.06-11.79,3.95-17.38-1.35-5.26-5-5.89-12.29-1.61-18.44,3.79-5.44,12.22-8.34,17.2-4.18,8.83,7.38,17.39,8.66,27.58,3.57C365.26,231.88,368.63,232.86,372.24,232.86Z" transform="translate(-254.35 -135.02)" />
</svg>
