<svg id="Layer_1" data-name="Layer 1" xmlns="http://www.w3.org/2000/svg" width="309.45" height="174.22" viewBox="0 0 309.45 174.22">
  <defs>
    <style>
      .cls-1 {
        fill: #02afe5;
      }
    </style>
  </defs>
  <title>mænd</title>
  <g>
    <path d="M206.28,162.46v1.74c0,5.68,0,11.36,0,17,0,1.11-.17,2.22-1.45,2.23s-1.6-1.11-1.59-2.3c0-2.92,0-5.84,0-8.77v-1.62h-.46v2.59q0,4,0,8.09c0,1.07-.35,2-1.53,2s-1.43-1-1.43-2c0-5.74,0-11.47,0-17.2v-1.79l-.44-.05a6.82,6.82,0,0,0-.18,1.1c0,1.91.06,3.82-.07,5.73,0,.46-.71.89-1.09,1.34-.32-.44-.92-.88-.93-1.33-.08-2.64-.09-5.28,0-7.92a3,3,0,0,1,3.06-3,51.56,51.56,0,0,1,5.56,0,3.19,3.19,0,0,1,3.22,3.39c.05,2.48.07,4.95,0,7.42,0,.49-.65,1-1,1.43-.36-.47-1-.92-1-1.4-.11-2.22,0-4.46,0-6.68Z" transform="translate(-165.77 -152.59)"/>
    <path d="M205.6,155.21a2.49,2.49,0,0,1-2.66,2.42,2.39,2.39,0,0,1-2.41-2.46,2.55,2.55,0,0,1,2.54-2.58A2.62,2.62,0,0,1,205.6,155.21Z" transform="translate(-165.77 -152.59)"/>
  </g>
  <g>
    <path d="M218.41,170.77v10.86c0,1.05-.51,1.84-1.54,1.84s-1.47-.82-1.47-1.88c0-5.79,0-11.59,0-17.38v-1.76l-.44,0c-.05.44-.14.88-.15,1.32,0,1.86.05,3.72-.07,5.57,0,.43-.67.82-1,1.23-.34-.37-1-.72-1-1.1-.08-2.81-.12-5.62,0-8.43a3,3,0,0,1,3.17-2.71c1.8-.07,3.6-.07,5.4,0a3.13,3.13,0,0,1,3.22,3.37c.05,2.48.07,4.95,0,7.43,0,.49-.63.95-1,1.43-.35-.46-1-.92-1-1.4-.11-2.23-.05-4.47-.05-6.71l-.49,0c0,.53-.12,1.06-.13,1.59v16.37c0,.45.15,1,0,1.34-.34.65-.81,1.62-1.35,1.72-1,.18-1.56-.71-1.57-1.74,0-2.59,0-5.17,0-7.76v-3.15Z" transform="translate(-165.77 -152.59)"/>
    <path d="M216.09,155.08a2.66,2.66,0,0,1,2.67-2.49,2.55,2.55,0,0,1,2.4,2.72,2.4,2.4,0,0,1-2.71,2.32A2.5,2.5,0,0,1,216.09,155.08Z" transform="translate(-165.77 -152.59)"/>
  </g>
  <g>
    <path d="M424.72,198.93v17.34c0,.51,0,1,0,1.52.06,1.14-.27,2.18-1.54,2.13s-1.5-1.08-1.49-2.22a83,83,0,0,0-.38-10.44c0,.49-.09,1-.1,1.47,0,3,0,6.07,0,9.1,0,1.12-.29,2.15-1.61,2.09s-1.33-1.09-1.33-2.12c0-5.73,0-11.46,0-17.2a2.84,2.84,0,0,0-.47-1.74,9.76,9.76,0,0,0-.15,1.18c0,1.91,0,3.83-.06,5.73,0,.43-.67.83-1,1.25-.34-.3-1-.6-1-.9,0-3-.13-6.08.12-9.09.13-1.46,1.52-2.19,3-2.26q2.7-.12,5.4,0a3.26,3.26,0,0,1,3.32,3.49c0,2.41.08,4.83,0,7.24,0,.53-.7,1-1.08,1.53-.34-.49-.94-1-1-1.48-.11-2.2-.05-4.41-.05-6.61Z" transform="translate(-165.77 -152.59)"/>
    <path d="M424,191.6a2.52,2.52,0,0,1-2.6,2.5,2.38,2.38,0,0,1-2.48-2.39,2.56,2.56,0,0,1,2.46-2.66A2.68,2.68,0,0,1,424,191.6Z" transform="translate(-165.77 -152.59)"/>
  </g>
  <g>
    <path d="M343.29,170.78c0,.51-.11,1-.11,1.55,0,3,0,6.07,0,9.1,0,1.06-.27,2-1.48,2s-1.44-1-1.43-2c0-5.74,0-11.47,0-17.2v-1.79l-.4,0a4.55,4.55,0,0,0-.22.92c0,2,.06,3.94-.06,5.9,0,.47-.72.9-1.1,1.34-.34-.44-.95-.86-1-1.31-.09-2.64-.11-5.29,0-7.92a3.09,3.09,0,0,1,3.22-3c1.74-.07,3.48-.06,5.22,0a3.33,3.33,0,0,1,3.44,3.57c0,2.19,0,4.38,0,6.57,0,.85.3,2.06-1,2.08s-1.09-1.29-1.12-2.16c-.05-2,0-3.9,0-5.85l-.45,0c0,.54-.07,1.07-.07,1.61,0,5.79,0,11.57,0,17.36,0,1.1-.37,2-1.51,2s-1.6-.88-1.51-2c0-.28,0-.56,0-.85v-8.26c0-.52,0-1-.07-1.56Z" transform="translate(-165.77 -152.59)"/>
    <path d="M346,155.19a2.53,2.53,0,0,1-2.65,2.44A2.36,2.36,0,0,1,341,155.2a2.57,2.57,0,0,1,2.51-2.61A2.7,2.7,0,0,1,346,155.19Z" transform="translate(-165.77 -152.59)"/>
  </g>
  <g>
    <path d="M199.22,198.9c0,2.18.07,4.37-.05,6.55,0,.54-.67,1-1,1.57-.35-.53-1-1.05-1-1.6-.11-2.41-.08-4.83,0-7.25a3.2,3.2,0,0,1,3.36-3.41c1.69-.06,3.38-.06,5.06,0a3.28,3.28,0,0,1,3.46,3.52c0,2.42.07,4.84,0,7.25,0,.52-.72,1-1.11,1.5-.32-.51-.88-1-.91-1.52-.12-1.67,0-3.37-.06-5a2.25,2.25,0,0,0-.49-1.55c0,.56-.08,1.13-.08,1.69q0,8.35,0,16.69c0,1.21.11,2.66-1.54,2.62-1.46,0-1.5-1.37-1.49-2.56a94.64,94.64,0,0,0-.32-10.09,9,9,0,0,0-.13,1.15q0,4.47,0,8.94c0,1.16,0,2.51-1.48,2.57s-1.49-1.32-1.48-2.47c0-5.62,0-11.24,0-16.87,0-.57-.06-1.14-.09-1.71Z" transform="translate(-165.77 -152.59)"/>
    <path d="M205.6,191.53a2.49,2.49,0,0,1-2.51,2.57,2.41,2.41,0,0,1-2.56-2.32,2.56,2.56,0,0,1,2.4-2.72A2.62,2.62,0,0,1,205.6,191.53Z" transform="translate(-165.77 -152.59)"/>
  </g>
  <g>
    <path d="M200,233.31c0,.51-.1,1-.1,1.54,0,1.8.06,3.6-.06,5.39,0,.43-.68.81-1.05,1.21-.33-.31-.95-.62-.95-.94-.05-3-.15-6,.09-8.92.12-1.56,1.53-2.32,3.06-2.38,1.8-.08,3.6-.08,5.39,0a3.2,3.2,0,0,1,3.27,3.35c0,2.48.07,5,0,7.42a1.81,1.81,0,0,1-1,1.4c-1,.18-1.1-.68-1.09-1.46,0-1.68,0-3.37,0-5.06,0-.51-.08-1-.12-1.54l-.46,0v1.71c0,5.68,0,11.35,0,17,0,1.1-.12,2.22-1.4,2.27s-1.64-1.06-1.63-2.26a90.7,90.7,0,0,0-.36-10.41c0,.45-.09.9-.09,1.35,0,3,0,6.07,0,9.1,0,1.1-.21,2.19-1.5,2.22s-1.47-1.05-1.46-2.16c0-5.73,0-11.47,0-17.2,0-.56-.06-1.13-.09-1.69Z" transform="translate(-165.77 -152.59)"/>
    <path d="M206.28,226.08a2.51,2.51,0,0,1-2.63,2.46,2.41,2.41,0,0,1-2.45-2.44,2.57,2.57,0,0,1,2.51-2.61A2.65,2.65,0,0,1,206.28,226.08Z" transform="translate(-165.77 -152.59)"/>
  </g>
  <g>
    <path d="M219.09,241.66v7.68c0,1.07,0,2.14,0,3.21s-.52,1.84-1.55,1.82-1.45-.84-1.45-1.9c0-5.68,0-11.36,0-17v-2.08l-.45,0a12.18,12.18,0,0,0-.14,1.34c0,1.86,0,3.72-.07,5.57,0,.42-.57.81-.88,1.21-.39-.32-1.11-.62-1.12-.95-.07-2.92-.18-5.86,0-8.76.13-1.63,1.53-2.46,3.14-2.52,1.8-.08,3.61-.08,5.4,0a3.1,3.1,0,0,1,3.2,3.22c.06,2.53.07,5.07,0,7.59,0,.49-.65.95-1,1.42-.35-.47-1-.93-1-1.42-.1-2.23,0-4.46,0-6.69l-.5,0c0,.54-.12,1.07-.12,1.61q0,8.19,0,16.37c0,.4,0,.79,0,1.18.06,1-.3,1.9-1.4,1.91s-1.58-.89-1.58-2c0-2.7,0-5.4,0-8.1v-2.63Z" transform="translate(-165.77 -152.59)"/>
    <path d="M219.31,223.49a2.55,2.55,0,0,1,2.53,2.59,2.39,2.39,0,0,1-2.42,2.46,2.51,2.51,0,0,1-2.66-2.43A2.67,2.67,0,0,1,219.31,223.49Z" transform="translate(-165.77 -152.59)"/>
  </g>
  <g>
    <path d="M292.83,199c0,2.11,0,4.23,0,6.35,0,.79,0,1.73-1.11,1.69s-1-1-1-1.76c0-2.3,0-4.61,0-6.92a3.24,3.24,0,0,1,3.41-3.55c1.68-.06,3.37-.06,5.06,0,2.19.08,3.36,1.32,3.39,3.55s.08,4.73,0,7.09c0,.55-.64,1.07-1,1.61-.36-.52-1-1-1-1.57-.12-2.18,0-4.36,0-6.55l-.48,0c0,.53-.13,1.06-.13,1.6q0,8.17,0,16.37c0,.45.15,1,0,1.33-.34.66-.8,1.63-1.34,1.72-1,.18-1.55-.7-1.56-1.74q0-4.21,0-8.44v-2.46h-.49v5.62c0,1.69,0,3.37,0,5.06,0,1.12-.42,2-1.54,2s-1.49-1-1.48-2c0-5.91,0-11.82,0-17.73,0-.41-.06-.83-.09-1.24Z" transform="translate(-165.77 -152.59)"/>
    <path d="M299.17,191.57a2.38,2.38,0,0,1-2.51,2.53,2.52,2.52,0,0,1-2.57-2.35,2.67,2.67,0,0,1,2.47-2.69A2.55,2.55,0,0,1,299.17,191.57Z" transform="translate(-165.77 -152.59)"/>
  </g>
  <g>
    <path d="M221.94,198.88c0,.57-.09,1.14-.09,1.71,0,5.46,0,10.92,0,16.37,0,1.21.45,3-1.5,2.94-1.69,0-1.46-1.68-1.46-2.9,0-3.25,0-6.49,0-9.74h-.47v2.53c0,2.7,0,5.4,0,8.1,0,1.1-.4,2-1.52,2s-1.5-.9-1.5-2c0-5.74,0-11.48,0-17.22v-1.79l-.39,0a7.44,7.44,0,0,0-.2,1.13c0,1.92.05,3.83-.07,5.74,0,.44-.64.84-1,1.26-.36-.41-1-.81-1-1.23q-.13-4.05,0-8.1a3,3,0,0,1,3-2.88,49.79,49.79,0,0,1,5.73,0,3.11,3.11,0,0,1,3.09,3.33c.05,2.48.07,5,0,7.43,0,.5-.61,1-.94,1.47-.37-.52-1-1-1-1.55-.14-1.67,0-3.37-.06-5.06,0-.51-.06-1-.1-1.53Z" transform="translate(-165.77 -152.59)"/>
    <path d="M221.17,191.66a2.41,2.41,0,0,1-2.62,2.44,2.5,2.5,0,0,1-2.46-2.45,2.66,2.66,0,0,1,2.56-2.6A2.57,2.57,0,0,1,221.17,191.66Z" transform="translate(-165.77 -152.59)"/>
  </g>
  <g>
    <path d="M424.72,162.47v4c0,4.94,0,9.89,0,14.83,0,1.14-.24,2.2-1.5,2.2s-1.55-1-1.54-2.18c0-3,0-6,0-8.94v-1.58h-.5v6.67c0,1.4,0,2.81,0,4.21,0,1-.45,1.85-1.54,1.82s-1.39-.88-1.39-1.91c0-5.84,0-11.69,0-17.53a2.6,2.6,0,0,0-.45-1.63,7.22,7.22,0,0,0-.17,1.12c0,1.91,0,3.83-.06,5.73,0,.45-.63.87-1,1.3-.37-.39-1.05-.77-1.06-1.18-.08-2.75-.1-5.5,0-8.25a3,3,0,0,1,3.05-2.81,54.27,54.27,0,0,1,5.56,0,3.19,3.19,0,0,1,3.2,3.25c.07,2.53.08,5.06,0,7.59,0,.48-.67.93-1,1.4-.35-.47-1-.93-1-1.42-.11-2.21-.05-4.43-.05-6.66Z" transform="translate(-165.77 -152.59)"/>
    <path d="M421.44,152.59a2.68,2.68,0,0,1,2.6,2.57,2.52,2.52,0,0,1-2.45,2.47,2.39,2.39,0,0,1-2.63-2.4A2.55,2.55,0,0,1,421.44,152.59Z" transform="translate(-165.77 -152.59)"/>
  </g>
  <g>
    <path d="M296.41,170.85v9.24c0,.51.17,1.11,0,1.5-.37.71-.9,1.74-1.49,1.83-1,.15-1.48-.75-1.48-1.82,0-4.89,0-9.78,0-14.68,0-1.48,0-3,0-4.46h-.58c0,1.45,0,2.9,0,4.35a17,17,0,0,1-.1,2.86,1.33,1.33,0,0,1-1,.82c-.35,0-1-.54-1-.85a85.49,85.49,0,0,1,.05-8.77c.12-1.63,1.49-2.48,3.11-2.55,1.8-.08,3.61-.08,5.4,0a3.15,3.15,0,0,1,3.24,3.37c.05,2.42.07,4.84,0,7.25,0,.56-.58,1.5-1,1.55-1.1.13-1.08-.83-1.07-1.65,0-2.13,0-4.26,0-6.39l-.47-.05c-.05.53-.14,1.06-.14,1.59q0,8.19,0,16.37c0,.45.15,1,0,1.33-.34.66-.8,1.64-1.34,1.74-1,.19-1.56-.69-1.57-1.73q0-4,0-8.1v-2.81Z" transform="translate(-165.77 -152.59)"/>
    <path d="M296.72,152.59a2.56,2.56,0,0,1,2.45,2.68,2.39,2.39,0,0,1-2.67,2.36,2.53,2.53,0,0,1-2.42-2.51A2.68,2.68,0,0,1,296.72,152.59Z" transform="translate(-165.77 -152.59)"/>
  </g>
  <g>
    <path d="M346.72,199v7.52c0,3.76,0,7.53,0,11.29,0,1.14-.28,2.19-1.53,2.17s-1.52-1.05-1.5-2.2a88.18,88.18,0,0,0-.37-10.5c-.05.42-.14.83-.15,1.25,0,2.86,0,5.73,0,8.6a3.31,3.31,0,0,1-.09,1.49c-.33.55-.92,1.29-1.41,1.29s-1-.78-1.34-1.33c-.2-.34-.05-.88-.05-1.33,0-5.51,0-11,0-16.52v-1.77l-.42,0a5.26,5.26,0,0,0-.2.94c0,2,0,3.94-.06,5.9,0,.45-.62.87-1,1.3-.38-.38-1.08-.76-1.09-1.15-.08-2.75-.1-5.51,0-8.26a3,3,0,0,1,3-2.82,54.27,54.27,0,0,1,5.56,0,3.25,3.25,0,0,1,3.24,3.4c0,2.48.07,4.95,0,7.42,0,.49-.67,1-1,1.42-.37-.46-1-.91-1.05-1.38-.12-2.22-.05-4.45-.05-6.67Z" transform="translate(-165.77 -152.59)"/>
    <path d="M346,191.6a2.54,2.54,0,0,1-2.6,2.5,2.37,2.37,0,0,1-2.49-2.39,2.58,2.58,0,0,1,2.46-2.66A2.71,2.71,0,0,1,346,191.6Z" transform="translate(-165.77 -152.59)"/>
  </g>
  <g>
    <path d="M293.51,233.36c0,1.86.06,3.71,0,5.56,0,.94.58,2.5-1.12,2.46-1.54,0-.95-1.52-1-2.42-.07-2.07,0-4.16,0-6.24a3.24,3.24,0,0,1,3.43-3.53c1.69-.05,3.38-.06,5.06,0a3.19,3.19,0,0,1,3.36,3.42c0,2.42.08,4.84,0,7.26,0,.54-.65,1.05-1,1.58-.35-.54-1-1.06-1-1.61-.11-2.16,0-4.34,0-6.51l-.49,0c0,.54-.12,1.08-.12,1.62q0,8.1,0,16.21c0,.39,0,.78,0,1.18.06,1.06-.18,2.06-1.4,2.06s-1.56-1-1.56-2.16c0-3,0-6,0-8.94v-1.61h-.49v5.16c0,1.69,0,3.37,0,5.06,0,1.21-.09,2.49-1.58,2.47s-1.45-1.25-1.45-2.39c0-5.63,0-11.26,0-16.88v-1.72Z" transform="translate(-165.77 -152.59)"/>
    <path d="M297.39,228.54a2.53,2.53,0,0,1-2.63-2.47,2.68,2.68,0,0,1,2.59-2.58,2.57,2.57,0,0,1,2.5,2.46A2.39,2.39,0,0,1,297.39,228.54Z" transform="translate(-165.77 -152.59)"/>
  </g>
  <g>
    <path d="M393.52,199v2.13c0,5.24,0,10.47,0,15.7,0,.51.15,1.12-.08,1.49a9.54,9.54,0,0,1-1.56,1.62c-.43-.56-1.21-1.1-1.24-1.68-.14-2.7-.06-5.4-.06-8.1v-2.94l-.45-.05a7.45,7.45,0,0,0-.16,1.14c0,2.93,0,5.85,0,8.78,0,1.21.29,2.85-1.5,2.79S387,218.22,387,217q0-8.12,0-16.21V199h-.47v5.13a4.87,4.87,0,0,1-.06,1.67c-.19.49-.72.84-1.09,1.25-.38-.41-1.06-.81-1.08-1.24-.09-2.69-.13-5.4,0-8.09a3.18,3.18,0,0,1,3.34-3c1.74-.06,3.49-.06,5.23,0a3.15,3.15,0,0,1,3.3,3.15c.14,2.58.11,5.18,0,7.76,0,.46-.72.9-1.11,1.35-.35-.48-1-.95-1-1.46-.11-2.17-.05-4.35-.05-6.53Z" transform="translate(-165.77 -152.59)"/>
    <path d="M390.26,189.06a2.65,2.65,0,0,1,2.56,2.6,2.43,2.43,0,0,1-2.47,2.44,2.53,2.53,0,0,1-2.67-2.44A2.72,2.72,0,0,1,390.26,189.06Z" transform="translate(-165.77 -152.59)"/>
  </g>
  <g>
    <path d="M436.84,207.31v9.74c0,.51.16,1.14-.08,1.49a3,3,0,0,1-1.63,1.32c-.33,0-1.17-.89-1.22-1.44-.16-1.73-.07-3.48-.07-5.22,0-4.77,0-9.53-.39-14.35a7.34,7.34,0,0,0-.21,1.1c0,1.91.05,3.83-.06,5.73,0,.46-.61.88-.94,1.32-.38-.45-1.06-.88-1.07-1.34-.11-2.58-.09-5.17,0-7.75a3.07,3.07,0,0,1,3.11-3.13,51.56,51.56,0,0,1,5.56,0,3.15,3.15,0,0,1,3.17,3.43c0,2.41.08,4.83,0,7.24,0,.54-.67,1.05-1,1.57-.34-.54-.95-1.06-1-1.62-.11-2.16,0-4.32,0-6.49l-.51,0c0,.54-.11,1.08-.11,1.62v16.35c0,.39,0,.79,0,1.18.07,1-.3,1.89-1.39,1.91s-1.6-.86-1.6-2c0-3,0-6.07,0-9.1,0-.54,0-1.09-.07-1.63Z" transform="translate(-165.77 -152.59)"/>
    <path d="M437,189.05a2.57,2.57,0,0,1,2.58,2.55,2.42,2.42,0,0,1-2.39,2.5,2.49,2.49,0,0,1-2.68-2.39A2.61,2.61,0,0,1,437,189.05Z" transform="translate(-165.77 -152.59)"/>
  </g>
  <g>
    <path d="M175.12,162.58v4.84q0,6.57,0,13.15a3.41,3.41,0,0,1-.15,1.65c-.33.53-1,1.22-1.5,1.18a1.91,1.91,0,0,1-1.24-1.42c-.13-2.63-.07-5.28-.07-7.92v-3.23h-.62v3c0,2.53,0,5.06,0,7.59,0,1.08-.24,2-1.44,2s-1.52-1-1.52-2v-17.2a2.73,2.73,0,0,0-.38-1.67c0,.41-.1.83-.1,1.25,0,1.79.07,3.6-.07,5.39,0,.48-.73.9-1.13,1.35-.36-.42-1-.83-1-1.26-.1-2.64-.13-5.29,0-7.93a3.19,3.19,0,0,1,3.22-3.07c1.79-.09,3.6-.08,5.39,0a3.18,3.18,0,0,1,3.31,3.16c.14,2.58.11,5.17,0,7.75,0,.47-.73.91-1.12,1.36-.35-.49-1-1-1-1.46-.11-2.17,0-4.35,0-6.53Z" transform="translate(-165.77 -152.59)"/>
    <path d="M174.41,155.23a2.57,2.57,0,0,1-5.14-.06,2.57,2.57,0,1,1,5.14.06Z" transform="translate(-165.77 -152.59)"/>
  </g>
  <g>
    <path d="M471.55,199.07v6.71q0,6,0,12c0,1.08-.22,2.19-1.53,2.18s-1.45-1.09-1.44-2.2c0-3,0-6,0-8.94,0-.5-.08-1-.12-1.52l-.5,0v4.23c0,2.08,0,4.16,0,6.24,0,1.13-.18,2.19-1.49,2.17S465,218.79,465,217.7V199h-.49c0,1.78,0,3.56,0,5.35a4.35,4.35,0,0,1-.08,1.66,1.7,1.7,0,0,1-1.16.92c-.29,0-1-.57-1-.9,0-2.91-.13-5.84.12-8.74.15-1.71,1.59-2.51,3.28-2.56s3.37-.06,5.06,0a3.26,3.26,0,0,1,3.46,3.37c.11,2.47.09,5,0,7.42,0,.51-.65,1-1,1.49-.4-.5-1.11-1-1.14-1.51-.13-2.16-.06-4.34-.06-6.52Z" transform="translate(-165.77 -152.59)"/>
    <path d="M470.85,191.62a2.58,2.58,0,0,1-5.15.08,2.58,2.58,0,1,1,5.15-.08Z" transform="translate(-165.77 -152.59)"/>
  </g>
  <g>
    <path d="M370.86,162.48c0,1.81,0,3.62,0,5.42a5.11,5.11,0,0,1-.1,1.67c-.13.39-.68,1-.93.91-.42-.08-1.07-.59-1.08-.94-.08-2.86-.17-5.74,0-8.59a2.91,2.91,0,0,1,3.05-2.63,51.75,51.75,0,0,1,5.57,0,3.1,3.1,0,0,1,3.15,3.27c.06,2.53.07,5.06,0,7.59,0,.47-.67.92-1,1.38-.34-.49-.95-1-1-1.46-.11-2.22,0-4.44,0-6.65l-.48,0c-.05.55-.12,1.1-.12,1.65q0,8.19,0,16.37c0,.45,0,.9,0,1.35,0,1-.49,1.81-1.42,1.64a2.28,2.28,0,0,1-1.42-1.65c-.15-3.09-.07-6.19-.08-9.28,0-.57-.06-1.14-.09-1.72l-.43,0v6.3c0,1.29,0,2.59,0,3.88s-.07,2.49-1.56,2.47-1.47-1.25-1.47-2.4c0-5.57,0-11.13,0-16.7V162.5Z" transform="translate(-165.77 -152.59)"/>
    <path d="M377.18,155.12a2.39,2.39,0,0,1-2.53,2.52,2.57,2.57,0,0,1-2.57-2.37,2.72,2.72,0,0,1,2.5-2.68A2.57,2.57,0,0,1,377.18,155.12Z" transform="translate(-165.77 -152.59)"/>
  </g>
  <g>
    <path d="M433.23,162.44c0,1.86.07,3.72,0,5.57,0,.93.62,2.5-1.09,2.46-1.55,0-.94-1.53-1-2.42-.08-2.08-.05-4.16,0-6.24a3.19,3.19,0,0,1,3.25-3.51c1.8-.08,3.6-.07,5.4,0a3.11,3.11,0,0,1,3.19,3.22c.06,2.53.08,5.06,0,7.59,0,.48-.64,1-1,1.42-.35-.47-1-.92-1-1.41-.11-2.22-.05-4.46-.05-6.69l-.51,0c0,.53-.11,1.06-.11,1.59,0,5.73,0,11.46,0,17.2,0,1.07,0,2.22-1.37,2.27s-1.64-1.07-1.63-2.25c0-3.47,0-6.94,0-10.4l-.45,0v1.67c0,2.87,0,5.74,0,8.6,0,1.16-.15,2.35-1.5,2.4s-1.52-1.15-1.52-2.31c0-5.62,0-11.24,0-16.86v-1.83Z" transform="translate(-165.77 -152.59)"/>
    <path d="M439.6,155.19a2.43,2.43,0,0,1-2.61,2.45,2.46,2.46,0,0,1-2.46-2.44,2.6,2.6,0,0,1,2.54-2.61A2.57,2.57,0,0,1,439.6,155.19Z" transform="translate(-165.77 -152.59)"/>
  </g>
  <g>
    <path d="M175.12,199v17.8c0,.5.15,1.11-.07,1.49a11,11,0,0,1-1.52,1.69c-.46-.6-1.29-1.17-1.31-1.79-.14-3-.07-6.06-.07-9.1v-1.77l-.47-.05a10.89,10.89,0,0,0-.14,1.28c0,3.09,0,6.18,0,9.27,0,1.06-.16,2.06-1.37,2.11s-1.59-1-1.59-2.1V199h-.49c0,2,.09,4.08-.05,6.11,0,.67-.62,1.78-1.08,1.85-1.13.15-1.16-.9-1.16-1.78,0-2.25,0-4.5,0-6.74a3.41,3.41,0,0,1,3.69-3.68c1.57,0,3.15,0,4.72,0a3.31,3.31,0,0,1,3.58,3.43c.1,2.47.09,4.95,0,7.42,0,.49-.68,1-1,1.45-.38-.52-1.06-1-1.1-1.57-.12-2.16,0-4.34,0-6.51Z" transform="translate(-165.77 -152.59)"/>
    <path d="M174.42,191.54a2.58,2.58,0,0,1-5.15.25,2.58,2.58,0,1,1,5.15-.25Z" transform="translate(-165.77 -152.59)"/>
  </g>
  <g>
    <path d="M175.79,233.44V251.2c0,.45,0,.9,0,1.35-.06,1-.44,1.86-1.55,1.82s-1.43-.83-1.42-1.89c0-3.2,0-6.41,0-9.61a1.68,1.68,0,0,0-.43-1.18,7,7,0,0,0-.17,1.09q0,4.47,0,8.94c0,1.18.18,2.69-1.5,2.63s-1.45-1.56-1.45-2.74c0-5.46,0-10.91,0-16.36v-1.79h-.49v5.39a5.42,5.42,0,0,1-.09,1.67c-.14.39-.7.94-1,.89s-1.13-.58-1.13-.92c-.05-2.92-.12-5.85.12-8.75.14-1.63,1.51-2.45,3.13-2.53s3.49-.06,5.22,0a3.28,3.28,0,0,1,3.45,3.4c.1,2.47.08,5,0,7.42,0,.5-.66,1-1,1.47-.39-.51-1.09-1-1.12-1.53-.13-2.17,0-4.35,0-6.52Z" transform="translate(-165.77 -152.59)"/>
    <path d="M172.59,228.54a2.5,2.5,0,0,1-2.65-2.45,2.58,2.58,0,0,1,5.15-.15A2.49,2.49,0,0,1,172.59,228.54Z" transform="translate(-165.77 -152.59)"/>
  </g>
  <g>
    <path d="M464.52,162.58c0,2.06.08,4.13,0,6.19,0,.62-.6,1.65-1,1.71-1.15.17-1.2-.85-1.2-1.74,0-2.25,0-4.49,0-6.74a3.4,3.4,0,0,1,3.65-3.71c1.58,0,3.15,0,4.73,0,2.2.07,3.52,1.24,3.61,3.4.11,2.47.09,4.95,0,7.42,0,.51-.67,1-1,1.48-.39-.51-1.09-1-1.12-1.53-.13-2.16-.06-4.34-.06-6.51h-.47v17.74c0,.45,0,.9,0,1.35,0,1-.43,1.86-1.54,1.83s-1.43-.82-1.42-1.88c0-3.21,0-6.41,0-9.61a1.75,1.75,0,0,0-.43-1.19,6.76,6.76,0,0,0-.18,1.08c0,3,0,6.07,0,9.11,0,1.17.06,2.52-1.5,2.48S465,182,465,180.88V162.55Z" transform="translate(-165.77 -152.59)"/>
    <path d="M470.85,155.19a2.58,2.58,0,0,1-5.15,0,2.58,2.58,0,1,1,5.15,0Z" transform="translate(-165.77 -152.59)"/>
  </g>
  <g>
    <path d="M378,198.89c0,.58-.09,1.15-.09,1.72,0,5.79,0,11.59,0,17.38,0,1-.26,1.91-1.37,1.94s-1.58-.86-1.56-2c0-.39,0-.79,0-1.18,0-2.64,0-5.29,0-7.93a2.59,2.59,0,0,0-.44-1.62c0,.56-.08,1.11-.08,1.67,0,2.81,0,5.63,0,8.44,0,1.18,0,2.52-1.48,2.55s-1.55-1.28-1.55-2.48c0-5.56,0-11.13,0-16.7v-1.79l-.39,0a11.82,11.82,0,0,0-.14,1.32c0,1.86,0,3.72-.08,5.57,0,.42-.69.81-1.05,1.21-.35-.36-1-.71-1-1.09-.08-2.81-.12-5.62,0-8.43a3.05,3.05,0,0,1,3.17-2.72c1.79-.08,3.6-.08,5.39,0a3.13,3.13,0,0,1,3.24,3.35c.06,2.48.08,5,0,7.43,0,.5-.62,1-1,1.47-.37-.52-1-1-1.05-1.56-.12-2.18,0-4.37,0-6.55Z" transform="translate(-165.77 -152.59)"/>
    <path d="M377.18,191.67a2.39,2.39,0,0,1-2.62,2.43,2.54,2.54,0,0,1-2.48-2.46,2.72,2.72,0,0,1,2.59-2.59A2.58,2.58,0,0,1,377.18,191.67Z" transform="translate(-165.77 -152.59)"/>
  </g>
  <g>
    <path d="M393.52,162.56v2.13c0,5.24,0,10.47,0,15.7,0,.51.15,1.12-.08,1.49a9.92,9.92,0,0,1-1.56,1.62c-.43-.56-1.21-1.11-1.24-1.69-.14-2.69-.06-5.4-.06-8.1v-3l-.43,0a5.68,5.68,0,0,0-.18,1c0,2.87,0,5.74,0,8.61,0,1.26.52,3.17-1.49,3.11s-1.45-1.95-1.45-3.23c0-5.29,0-10.58,0-15.86v-1.8h-.47v5.13a4.87,4.87,0,0,1-.06,1.67c-.19.48-.72.84-1.1,1.25-.37-.41-1.06-.82-1.07-1.24-.09-2.7-.13-5.4,0-8.1a3.18,3.18,0,0,1,3.34-2.94c1.74-.07,3.49-.07,5.23,0a3.14,3.14,0,0,1,3.3,3.15c.14,2.58.11,5.18,0,7.76,0,.46-.73.9-1.11,1.35-.35-.49-1-1-1-1.46-.11-2.18-.05-4.36-.05-6.54Z" transform="translate(-165.77 -152.59)"/>
    <path d="M390.27,157.64a2.53,2.53,0,0,1-2.59-2.52,2.73,2.73,0,0,1,2.66-2.53,2.69,2.69,0,0,1,2.49,2.52A2.46,2.46,0,0,1,390.27,157.64Z" transform="translate(-165.77 -152.59)"/>
  </g>
  <g>
    <path d="M190.73,199.07v7.38c0,3.76,0,7.53,0,11.3,0,1.13-.28,2.18-1.54,2.18s-1.5-1.05-1.48-2.19c0-3,0-6,0-8.94v-1.58l-.47,0c0,.51-.11,1-.11,1.52,0,3,0,6.07,0,9.11,0,1.12-.21,2.16-1.54,2.11s-1.35-1.1-1.35-2.13q0-8.6,0-17.2c0-.57-.07-1.14-.1-1.71l-.49,0v5.4a3.92,3.92,0,0,1,0,1.5,5,5,0,0,1-1.1,1.22c-.36-.37-1-.73-1-1.11-.06-2.8-.1-5.62.08-8.42a3,3,0,0,1,3.12-2.74c1.79-.08,3.6-.08,5.39,0a3.29,3.29,0,0,1,3.33,3.34c.08,2.47.09,4.95,0,7.42,0,.52-.73,1-1.13,1.51-.35-.49-1-1-1-1.47-.11-2.17,0-4.35,0-6.53Z" transform="translate(-165.77 -152.59)"/>
    <path d="M187.44,189.05a2.75,2.75,0,0,1,2.6,2.59,2.57,2.57,0,0,1-2.65,2.46,2.36,2.36,0,0,1-2.45-2.42A2.58,2.58,0,0,1,187.44,189.05Z" transform="translate(-165.77 -152.59)"/>
  </g>
  <g>
    <path d="M315.57,162.49c0,.58-.07,1.16-.07,1.74q0,8,0,16c0,.45,0,.9,0,1.35,0,1-.37,1.87-1.48,1.85s-1.45-.82-1.44-1.87c0-3.1,0-6.19,0-9.28,0-.52-.05-1-.07-1.56H312V175c0,2.08,0,4.16,0,6.24,0,1.11-.14,2.22-1.43,2.24S309,182.3,309,181.14c0-5.57,0-11.14,0-16.71v-1.81l-.37,0c0,.53-.09,1.06-.1,1.59,0,1.69.08,3.38-.07,5.06,0,.47-.74.89-1.14,1.33-.36-.43-1-.85-1-1.28-.1-2.64-.12-5.29,0-7.93a3.17,3.17,0,0,1,3.24-3c1.8-.08,3.61-.08,5.4,0a3.07,3.07,0,0,1,3.21,3c.14,2.64.11,5.29,0,7.93,0,.44-.64.87-1,1.3-.38-.46-1.07-.9-1.09-1.38-.12-2.23-.05-4.48-.05-6.72Z" transform="translate(-165.77 -152.59)"/>
    <path d="M312.42,152.59a2.62,2.62,0,0,1,2.36,2.77,2.41,2.41,0,0,1-2.77,2.27,2.53,2.53,0,0,1-2.34-2.59A2.74,2.74,0,0,1,312.42,152.59Z" transform="translate(-165.77 -152.59)"/>
  </g>
  <g>
    <path d="M331.15,162.55v1.77q0,8.1,0,16.21c0,.5.15,1.12-.08,1.49a9.11,9.11,0,0,1-1.55,1.48c-.45-.55-1.27-1.08-1.29-1.65-.13-3.09-.06-6.18-.06-9.28v-1.82l-.45,0a10.92,10.92,0,0,0-.16,1.28c0,3.15,0,6.3,0,9.45,0,1.08-.24,2-1.45,2s-1.46-1-1.46-2.05q0-8.61,0-17.22c0-.58-.05-1.15-.09-1.73l-.44,0c0,2.08,0,4.16,0,6.24,0,.89,0,1.9-1.19,1.76-.43-.06-1-1.1-1-1.71-.13-2.25-.08-4.5,0-6.75,0-2.44,1.35-3.71,3.8-3.75,1.57,0,3.15,0,4.72,0a3.32,3.32,0,0,1,3.48,3.38c.09,2.47.08,4.95,0,7.42,0,.51-.66,1-1,1.48-.39-.51-1.1-1-1.13-1.51-.13-2.17-.06-4.35-.06-6.52Z" transform="translate(-165.77 -152.59)"/>
    <path d="M330.45,155.2a2.55,2.55,0,0,1-2.67,2.44,2.41,2.41,0,0,1-2.45-2.61,2.63,2.63,0,0,1,2.54-2.44A2.75,2.75,0,0,1,330.45,155.2Z" transform="translate(-165.77 -152.59)"/>
  </g>
  <g>
    <path d="M405.65,170.74c0,.51-.1,1-.1,1.52,0,3.09,0,6.18,0,9.28,0,1-.27,1.89-1.38,1.93s-1.51-.9-1.5-2q0-8.69,0-17.37c0-.57-.06-1.13-.1-1.7l-.47,0c0,2.1,0,4.19,0,6.28,0,.89,0,1.9-1.19,1.75-.43-.06-1-1.1-1-1.72-.12-2.25-.09-4.5,0-6.75.05-2.45,1.34-3.69,3.8-3.74,1.52,0,3,0,4.55,0a3.39,3.39,0,0,1,3.65,3.55c.07,2.41.08,4.84,0,7.25,0,.5-.64,1-1,1.48-.4-.49-1.12-1-1.15-1.48-.13-2.17-.06-4.35-.06-6.52h-.46v17.91c0,.44.16,1,0,1.32a12.24,12.24,0,0,1-1.52,1.71c-.48-.59-1.33-1.16-1.36-1.77-.14-3.14-.06-6.29-.07-9.44,0-.52,0-1-.07-1.55Z" transform="translate(-165.77 -152.59)"/>
    <path d="M408.46,155.08a2.55,2.55,0,0,1-2.38,2.55,2.4,2.4,0,0,1-2.73-2.31,2.62,2.62,0,0,1,2.4-2.73A2.76,2.76,0,0,1,408.46,155.08Z" transform="translate(-165.77 -152.59)"/>
  </g>
  <g>
    <path d="M455.88,162.47v17.42c0,.4,0,.79,0,1.18,0,1.1.05,2.37-1.42,2.39s-1.5-1.2-1.5-2.33c0-2.92,0-5.84,0-8.76v-1.59h-.47c0,.5-.09,1-.09,1.5,0,3,0,6.07,0,9.1,0,1.09-.3,2-1.44,2.09s-1.59-1-1.58-2.12c0-5.68,0-11.35,0-17v-1.79h-.5c0,1.87,0,3.74,0,5.6,0,.92.43,2.35-1.07,2.39s-1.09-1.4-1.12-2.31c-.05-2.14,0-4.27,0-6.41A3.24,3.24,0,0,1,450,158.3c1.8-.07,3.6-.08,5.4,0a3.11,3.11,0,0,1,3.16,3.26c.07,2.52.08,5,0,7.58,0,.48-.67.93-1,1.4-.35-.48-1-.94-1-1.43-.11-2.22,0-4.45,0-6.68Z" transform="translate(-165.77 -152.59)"/>
    <path d="M452.68,157.64a2.55,2.55,0,0,1-2.6-2.51,2.73,2.73,0,0,1,2.66-2.54,2.59,2.59,0,0,1,2.45,2.51A2.39,2.39,0,0,1,452.68,157.64Z" transform="translate(-165.77 -152.59)"/>
  </g>
  <g>
    <path d="M191.4,233.48v18c0,.45.15,1-.06,1.33a11.45,11.45,0,0,1-1.44,1.61c-.5-.57-1.41-1.12-1.43-1.71-.15-3.14-.07-6.29-.07-9.44v-1.62l-.44,0a12,12,0,0,0-.15,1.33c0,3.09,0,6.18,0,9.27,0,1.12-.17,2.17-1.51,2.15s-1.38-1.06-1.38-2.1c0-5.79,0-11.58,0-17.37a2.37,2.37,0,0,0-.48-1.57c0,.51-.1,1-.1,1.52,0,1.8.06,3.6-.06,5.39,0,.44-.69.82-1.06,1.23-.37-.35-1-.7-1.05-1.07,0-2.86-.09-5.73.11-8.58.12-1.68,1.45-2.51,3.05-2.61,1.8-.1,3.6-.08,5.4,0a3.31,3.31,0,0,1,3.36,3.48c.06,2.41.08,4.83,0,7.25,0,.53-.72,1-1.1,1.55-.36-.54-1-1.06-1-1.62-.12-2.12,0-4.24,0-6.36Z" transform="translate(-165.77 -152.59)"/>
    <path d="M188.18,228.54a2.38,2.38,0,0,1-2.57-2.48,2.58,2.58,0,0,1,2.55-2.57,2.78,2.78,0,0,1,2.55,2.47A2.56,2.56,0,0,1,188.18,228.54Z" transform="translate(-165.77 -152.59)"/>
  </g>
  <g>
    <path d="M402.09,198.92c0,2.11.08,4.22,0,6.32,0,.62-.6,1.64-1,1.7-1.17.16-1.17-.89-1.18-1.75,0-2.19,0-4.39,0-6.58,0-2.57,1.3-3.83,3.84-3.86,1.58,0,3.15-.05,4.72,0a3.33,3.33,0,0,1,3.44,3.41c.08,2.47.08,4.95,0,7.41,0,.5-.67,1-1,1.45-.39-.51-1.08-1-1.12-1.53-.12-2.17-.05-4.34-.05-6.51h-.46v18c0,.51.16,1.13-.08,1.49a8.44,8.44,0,0,1-1.54,1.5c-.45-.55-1.29-1.08-1.31-1.64-.13-3.09-.06-6.18-.07-9.27v-1.83l-.42,0a8.93,8.93,0,0,0-.17,1.25c0,3.15,0,6.3,0,9.44,0,1.07-.2,2-1.43,2.06s-1.47-1-1.46-2c0-5.74,0-11.47,0-17.2v-1.78Z" transform="translate(-165.77 -152.59)"/>
    <path d="M408.46,191.7a2.57,2.57,0,0,1-2.71,2.4,2.37,2.37,0,0,1-2.39-2.64,2.6,2.6,0,0,1,2.55-2.41A2.76,2.76,0,0,1,408.46,191.7Z" transform="translate(-165.77 -152.59)"/>
  </g>
  <g>
    <path d="M448.9,199v5.34a3.7,3.7,0,0,1-.08,1.5,4.6,4.6,0,0,1-1.14,1.15c-.33-.38-.94-.75-.95-1.14-.08-2.75-.12-5.51,0-8.26a3.11,3.11,0,0,1,3.23-2.84c1.8-.08,3.6-.08,5.4,0a3.1,3.1,0,0,1,3.19,3.22c.08,2.52.09,5.06,0,7.58,0,.49-.64,1-1,1.45-.36-.52-1-1-1-1.57-.12-2.18,0-4.36,0-6.55l-.46,0c0,.54-.13,1.07-.13,1.61,0,5.45,0,10.9,0,16.35a3.72,3.72,0,0,1-.05,1.5A9.75,9.75,0,0,1,454.5,220c-.51-.55-1.43-1.08-1.45-1.66-.15-3.08-.08-6.18-.08-9.27a3.11,3.11,0,0,0-.4-1.82,6.33,6.33,0,0,0-.16,1c0,3.14,0,6.29,0,9.44,0,1.18-.18,2.32-1.56,2.29s-1.47-1.13-1.47-2.25c0-5.62,0-11.24,0-16.86V199Z" transform="translate(-165.77 -152.59)"/>
    <path d="M452.63,189.05a2.58,2.58,0,0,1,2.56,2.57,2.37,2.37,0,0,1-2.4,2.48,2.57,2.57,0,0,1-2.71-2.4A2.75,2.75,0,0,1,452.63,189.05Z" transform="translate(-165.77 -152.59)"/>
  </g>
  <g>
    <path d="M234.64,241.67c0,3.3,0,6.61,0,9.92a3.49,3.49,0,0,1-.06,1.49c-.3.53-.86,1.21-1.34,1.24s-1.12-.61-1.45-1.1-.13-1-.13-1.49q0-8.26,0-16.54v-1.78h-.48c0,1.72,0,3.44,0,5.16a4.62,4.62,0,0,1-.06,1.67c-.19.48-.72.82-1.1,1.22-.36-.42-1-.82-1-1.25-.1-2.64-.11-5.29,0-7.93a3.05,3.05,0,0,1,2.88-3,39.26,39.26,0,0,1,6.23,0,2.86,2.86,0,0,1,2.73,2.94c.09,2.64.09,5.29,0,7.93,0,.44-.62.87-1,1.31-.38-.46-1.06-.89-1.08-1.37-.12-2.24,0-4.48,0-6.73l-.45-.05c0,.53-.12,1.06-.12,1.59,0,5.46,0,10.91,0,16.37a4.19,4.19,0,0,1-.08,1.67,7,7,0,0,1-1.33,1.46c-.49-.51-1.37-1-1.41-1.53-.16-2.41-.08-4.83-.08-7.25v-3.94Z" transform="translate(-165.77 -152.59)"/>
    <path d="M234.91,228.54a2.56,2.56,0,0,1-2.58-2.54,2.75,2.75,0,0,1,2.69-2.51,2.61,2.61,0,0,1,2.43,2.54A2.4,2.4,0,0,1,234.91,228.54Z" transform="translate(-165.77 -152.59)"/>
  </g>
  <g>
    <path d="M250.21,241.74v4.93c0,1.85,0,3.71,0,5.56,0,1.14-.2,2.17-1.51,2.14s-1.43-1.06-1.43-2.1V233.44h-.51v5.38a4.35,4.35,0,0,1-.08,1.66,1.71,1.71,0,0,1-1.15.92,1.37,1.37,0,0,1-1-.9c0-3-.08-5.95.19-8.9.15-1.66,1.61-2.35,3.22-2.4s3.37-.06,5.06,0a3.3,3.3,0,0,1,3.46,3.38c.1,2.47.09,4.95,0,7.42,0,.51-.65,1-1,1.48-.4-.5-1.11-1-1.15-1.5-.13-2.17,0-4.34,0-6.52h-.46v17.75c0,.45,0,.9,0,1.35-.06,1-.48,1.85-1.57,1.81s-1.43-.84-1.41-1.9c0-3.2,0-6.41,0-9.61,0-.38-.07-.75-.1-1.13Z" transform="translate(-165.77 -152.59)"/>
    <path d="M250.39,228.54a2.45,2.45,0,0,1-2.42-2.49,2.69,2.69,0,0,1,2.61-2.56,2.73,2.73,0,0,1,2.53,2.67A2.53,2.53,0,0,1,250.39,228.54Z" transform="translate(-165.77 -152.59)"/>
  </g>
  <g>
    <path d="M331.15,199v18c0,.45.13,1-.07,1.32a11.07,11.07,0,0,1-1.46,1.61c-.49-.58-1.37-1.13-1.4-1.72-.14-3.15-.06-6.3-.06-9.45v-1.59l-.47,0a11.82,11.82,0,0,0-.14,1.32c0,3.15,0,6.3,0,9.45,0,1.11-.31,2-1.51,2s-1.4-.94-1.4-1.94V200.94a4.14,4.14,0,0,0-.36-2,5.06,5.06,0,0,0-.17.93c0,2,.05,3.94-.07,5.9,0,.45-.67.86-1,1.28-.39-.39-1.11-.77-1.12-1.17-.09-2.75-.13-5.52,0-8.26a3,3,0,0,1,3.08-2.82c1.85-.09,3.72-.09,5.57,0a3.25,3.25,0,0,1,3.24,3.25c.1,2.53.09,5.07,0,7.59,0,.49-.69,1-1.06,1.43-.38-.47-1.06-.92-1.09-1.41-.11-2.17,0-4.36,0-6.54Z" transform="translate(-165.77 -152.59)"/>
    <path d="M330.45,191.67a2.54,2.54,0,0,1-2.67,2.43,2.41,2.41,0,0,1-2.45-2.61,2.63,2.63,0,0,1,2.54-2.43A2.73,2.73,0,0,1,330.45,191.67Z" transform="translate(-165.77 -152.59)"/>
  </g>
  <g>
    <path d="M281.5,241.67v2.58c0,2.69,0,5.39,0,8.09,0,1.07-.37,2-1.54,2s-1.45-.94-1.45-2c0-5.73,0-11.46,0-17.2v-1.8l-.42-.06a7,7,0,0,0-.19,1.1c0,1.91.06,3.82-.07,5.73,0,.46-.7.89-1.08,1.34-.33-.44-.92-.87-.93-1.31-.09-2.64-.09-5.29,0-7.93a3,3,0,0,1,3.05-3,51.56,51.56,0,0,1,5.56,0,3.18,3.18,0,0,1,3.22,3.39c0,2.47.06,4.95,0,7.42,0,.49-.65.95-1,1.43-.36-.47-1-.93-1-1.41-.11-2.22-.05-4.45-.05-6.68l-.51,0c0,.53-.09,1.06-.09,1.59,0,5.51,0,11,0,16.53,0,.39.14.87,0,1.16a15.55,15.55,0,0,1-1.37,1.8c-.53-.61-1.49-1.2-1.52-1.84-.16-3-.08-6.06-.08-9.1v-1.79Z" transform="translate(-165.77 -152.59)"/>
    <path d="M284.28,226a2.48,2.48,0,0,1-2.54,2.54,2.44,2.44,0,0,1-2.54-2.36,2.58,2.58,0,0,1,2.44-2.69A2.63,2.63,0,0,1,284.28,226Z" transform="translate(-165.77 -152.59)"/>
  </g>
  <g>
    <path d="M312,207.23v7.32a19.81,19.81,0,0,1-.07,3.7c-.13.64-.93,1.16-1.42,1.73a11,11,0,0,1-1.44-1.63c-.2-.33-.06-.87-.06-1.32V199h-.47c0,1.8,0,3.6,0,5.4a4.86,4.86,0,0,1-.1,1.67c-.15.38-.72.93-1,.88s-1.09-.61-1.1-1a84.85,84.85,0,0,1,.07-8.59,2.93,2.93,0,0,1,3.06-2.63,54.27,54.27,0,0,1,5.56,0,3.08,3.08,0,0,1,3.15,3.11c.13,2.58.12,5.17,0,7.76,0,.47-.69.92-1.06,1.38-.36-.48-1-.94-1-1.44-.12-2.21-.05-4.43-.05-6.65l-.43,0c0,.56-.1,1.13-.1,1.69q0,8,0,16c0,.45,0,.9,0,1.35,0,1.07-.33,2-1.55,2s-1.38-.92-1.37-1.94c0-3,0-6.08,0-9.12v-1.61Z" transform="translate(-165.77 -152.59)"/>
    <path d="M312.15,194.1a2.54,2.54,0,0,1-2.48-2.46,2.72,2.72,0,0,1,2.6-2.58,2.6,2.6,0,0,1,2.52,2.62A2.41,2.41,0,0,1,312.15,194.1Z" transform="translate(-165.77 -152.59)"/>
  </g>
  <g>
    <path d="M362.28,198.91v1.72c0,5.68,0,11.36,0,17,0,1.08-.08,2.22-1.39,2.25s-1.63-1.08-1.62-2.27c0-3.46,0-6.93,0-10.4h-.45v2.87c0,2.53,0,5.06,0,7.59,0,1.12-.27,2.19-1.52,2.22s-1.49-1-1.49-2.17c0-5.67,0-11.35,0-17V198.9l-.41-.06a6.77,6.77,0,0,0-.21,1.09c0,1.91.06,3.82-.06,5.73,0,.47-.7.9-1.07,1.35-.33-.44-.93-.86-.94-1.3-.09-2.64-.09-5.29,0-7.93a3.08,3.08,0,0,1,3.22-3c1.79-.08,3.6-.08,5.39,0a3.16,3.16,0,0,1,3.22,3.39c0,2.47.07,5,0,7.42,0,.49-.65.95-1,1.43-.35-.47-1-.93-1-1.41-.11-2.23-.05-4.46-.05-6.69Z" transform="translate(-165.77 -152.59)"/>
    <path d="M359.08,194.1a2.44,2.44,0,0,1-2.55-2.51,2.54,2.54,0,0,1,5.07,0A2.46,2.46,0,0,1,359.08,194.1Z" transform="translate(-165.77 -152.59)"/>
  </g>
  <g>
    <path d="M331.82,233.45v18c0,.51.15,1.13-.09,1.49a8.39,8.39,0,0,1-1.54,1.49c-.45-.55-1.27-1.08-1.3-1.64-.12-3.09-.06-6.19-.06-9.28v-1.83l-.44,0a9.21,9.21,0,0,0-.17,1.27c0,3.15,0,6.31,0,9.46,0,1.08-.23,2-1.45,2s-1.46-1-1.46-2.05q0-8.61,0-17.22c0-.57-.06-1.15-.09-1.73h-.45v5.23a3.93,3.93,0,0,1,0,1.5,6.39,6.39,0,0,1-1.15,1.37c-.36-.43-1-.85-1-1.29-.09-2.64-.13-5.29,0-7.93a3.16,3.16,0,0,1,3.24-3c1.79-.09,3.6-.08,5.39,0a3.28,3.28,0,0,1,3.31,3.37c.09,2.47.09,4.95,0,7.42,0,.51-.65,1-1,1.47-.4-.5-1.11-1-1.14-1.5-.13-2.17-.05-4.35-.05-6.52Z" transform="translate(-165.77 -152.59)"/>
    <path d="M331.13,226.06a2.55,2.55,0,0,1-2.63,2.48,2.41,2.41,0,0,1-2.5-2.4,2.63,2.63,0,0,1,2.5-2.65A2.76,2.76,0,0,1,331.13,226.06Z" transform="translate(-165.77 -152.59)"/>
  </g>
  <g>
    <path d="M277.22,198.9c0,2,0,4.1,0,6.15,0,.8.25,1.9-1,1.93s-1.08-1.17-1.09-2q0-3.37,0-6.75a3.19,3.19,0,0,1,3.3-3.47c1.74-.07,3.48-.07,5.22,0a3.21,3.21,0,0,1,3.34,3.45c0,2.42.08,4.84,0,7.25,0,.53-.67,1-1,1.55-.33-.54-.93-1.07-1-1.62-.12-2.16-.05-4.32-.05-6.47l-.51,0c0,.55-.08,1.1-.08,1.64,0,5.68,0,11.36,0,17,0,1.14-.05,2.37-1.47,2.36s-1.57-1.15-1.55-2.33c0-2.93,0-5.85,0-8.77v-1.59h-.46v8.71c0,.73,0,1.46,0,2.19,0,1-.49,1.84-1.57,1.81s-1.41-.86-1.4-1.9c0-5.79,0-11.58,0-17.37v-1.77Z" transform="translate(-165.77 -152.59)"/>
    <path d="M283.6,191.68A2.47,2.47,0,0,1,281,194.1a2.43,2.43,0,0,1-2.42-2.47,2.57,2.57,0,0,1,2.55-2.58A2.62,2.62,0,0,1,283.6,191.68Z" transform="translate(-165.77 -152.59)"/>
  </g>
  <g>
    <path d="M265.15,207.26v7.85c0,1,0,2,0,3s-.44,1.82-1.53,1.78-1.35-.8-1.35-1.78c0-5.12,0-10.23,0-15.35v-3.9h-.62v5.55a3.46,3.46,0,0,1,0,1.33,6,6,0,0,1-1.08,1.24c-.35-.36-1-.71-1-1.08,0-2.86-.1-5.73.1-8.59.12-1.68,1.46-2.49,3.06-2.58a51.19,51.19,0,0,1,5.4,0,3.32,3.32,0,0,1,3.34,3.5c.05,2.41.08,4.84,0,7.25,0,.52-.72,1-1.11,1.52-.35-.49-1-1-1-1.47-.11-2.17,0-4.35,0-6.53l-.49,0v18c0,.39.14.88,0,1.16-.4.65-.89,1.62-1.45,1.71-1,.14-1.54-.68-1.53-1.76,0-3.1,0-6.19,0-9.28v-1.62Z" transform="translate(-165.77 -152.59)"/>
    <path d="M268,191.54a2.56,2.56,0,0,1-2.38,2.56,2.39,2.39,0,0,1-2.71-2.32,2.56,2.56,0,0,1,2.39-2.72A2.72,2.72,0,0,1,268,191.54Z" transform="translate(-165.77 -152.59)"/>
  </g>
  <g>
    <path d="M249.54,207.3v6a47.38,47.38,0,0,1-.08,5.06c-.06.57-.86,1.07-1.32,1.61a9.24,9.24,0,0,1-1.46-1.55c-.22-.38-.07-1-.07-1.49q0-8.1,0-16.19V199h-.5c0,2,0,4.1,0,6.15,0,.87,0,1.87-1.13,1.89s-1.16-1-1.16-1.84c0-2.19,0-4.39,0-6.58,0-2.52,1.33-3.8,3.87-3.83,1.52,0,3,0,4.55,0,2.11.07,3.46,1.23,3.56,3.28.12,2.52.1,5.06,0,7.58,0,.5-.69,1-1.06,1.44-.38-.53-1-1-1.08-1.58-.15-1.62-.06-3.26-.06-4.89V199h-.45v2.13q0,7.93,0,15.86c0,.5.14,1.12-.09,1.48a8.68,8.68,0,0,1-1.55,1.47c-.44-.55-1.25-1.09-1.27-1.65-.13-3.09-.06-6.18-.06-9.28,0-.58,0-1.15,0-1.73Z" transform="translate(-165.77 -152.59)"/>
    <path d="M252.44,191.59a2.52,2.52,0,0,1-2.59,2.51,2.45,2.45,0,0,1-2.55-2.36,2.66,2.66,0,0,1,2.48-2.68A2.72,2.72,0,0,1,252.44,191.59Z" transform="translate(-165.77 -152.59)"/>
  </g>
  <g>
    <path d="M269.4,233.45v18c0,.39.14.87,0,1.16-.4.65-.88,1.62-1.45,1.71-1,.16-1.54-.66-1.54-1.75,0-3.09,0-6.18,0-9.28v-1.62l-.41,0a12.3,12.3,0,0,0-.15,1.33c0,3.09,0,6.18,0,9.28,0,1.11-.2,2.16-1.53,2.12s-1.37-1.06-1.36-2.1q0-8.59,0-17.21c0-.57-.06-1.15-.09-1.72h-.52v5.54a4.2,4.2,0,0,1-.05,1.51c-.19.43-.69,1-1,1a1.43,1.43,0,0,1-1-1c-.06-2.86-.1-5.74.09-8.59.12-1.69,1.46-2.5,3.06-2.6a53.83,53.83,0,0,1,5.39,0,3.3,3.3,0,0,1,3.35,3.48c.05,2.31,0,4.62,0,6.92,0,.88,0,1.91-1.15,1.78-.41,0-1-1.09-1-1.71-.13-2.06-.05-4.13-.05-6.19Z" transform="translate(-165.77 -152.59)"/>
    <path d="M266.19,223.49a2.75,2.75,0,0,1,2.52,2.66,2.55,2.55,0,0,1-2.71,2.38,2.35,2.35,0,0,1-2.38-2.48A2.57,2.57,0,0,1,266.19,223.49Z" transform="translate(-165.77 -152.59)"/>
  </g>
  <g>
    <path d="M237.46,198.94v18c0,.51.15,1.11-.07,1.5A9.39,9.39,0,0,1,236,220c-.47-.53-1.32-1.05-1.34-1.6-.14-3.15-.07-6.3-.08-9.45,0-.57-.06-1.14-.1-1.71l-.48,0v7.29c0,1.18,0,2.36,0,3.54s-.46,1.86-1.49,1.86-1.51-.83-1.51-1.87V210a100.19,100.19,0,0,0-.4-10.94c0,.49-.08,1-.09,1.49,0,1.74.06,3.49-.06,5.22,0,.46-.67.87-1,1.3-.39-.45-1.1-.88-1.11-1.34-.11-2.59-.11-5.18,0-7.76a3.16,3.16,0,0,1,3.13-3.15,54.47,54.47,0,0,1,5.57,0,3.11,3.11,0,0,1,3.17,3.26q.13,3.79,0,7.59c0,.48-.68.93-1,1.39-.35-.48-1-.94-1-1.43-.11-2.22-.05-4.44-.05-6.67Z" transform="translate(-165.77 -152.59)"/>
    <path d="M236.77,191.59a2.38,2.38,0,0,1-2.54,2.51,2.57,2.57,0,0,1-2.57-2.37,2.75,2.75,0,0,1,2.51-2.68A2.6,2.6,0,0,1,236.77,191.59Z" transform="translate(-165.77 -152.59)"/>
  </g>
  <g>
    <path d="M190.73,162.55v18c0,.4,0,.79,0,1.18-.05,1-.58,1.91-1.6,1.7a2.27,2.27,0,0,1-1.33-1.73c-.14-3.08-.07-6.18-.07-9.27v-1.66l-.41,0a9.5,9.5,0,0,0-.17,1.29c0,3.15,0,6.3,0,9.45,0,1.07-.25,2-1.47,2s-1.42-1-1.42-2.05c0-5.74,0-11.47,0-17.21v-1.75l-.59,0a8,8,0,0,1,0,2c-.51,2,1.25,4.45-1,6.17-2.43-1.7-.62-4.19-1.13-6.26a8.39,8.39,0,0,1,0-2.35c.1-2.39,1.34-3.62,3.7-3.67,1.57,0,3.15,0,4.72,0a3.38,3.38,0,0,1,3.58,3.61c.05,2.36.08,4.73,0,7.08,0,.55-.68,1.06-1,1.59-.38-.52-1.05-1-1.08-1.57-.13-2.15-.06-4.31-.06-6.47Z" transform="translate(-165.77 -152.59)"/>
    <path d="M190,155.19a2.56,2.56,0,0,1-2.67,2.44,2.37,2.37,0,0,1-2.43-2.6,2.58,2.58,0,0,1,2.51-2.44A2.75,2.75,0,0,1,190,155.19Z" transform="translate(-165.77 -152.59)"/>
  </g>
  <g>
    <path d="M230.49,162.6c0,2,0,4,0,6,0,.84.09,1.88-1.1,1.9s-1.15-1-1.14-1.84c0-2.25,0-4.5,0-6.75a3.32,3.32,0,0,1,3.52-3.65c1.69,0,3.38-.06,5.06,0a3.1,3.1,0,0,1,3.29,3.13c.11,2.59.1,5.18,0,7.76,0,.47-.69.9-1.07,1.36-.34-.49-1-1-1-1.47-.11-2.2-.05-4.42-.05-6.63l-.46,0c0,.57-.1,1.13-.1,1.69q0,8,0,16c0,.45,0,.9,0,1.35,0,1.07-.3,2-1.53,2s-1.39-.91-1.38-1.93c0-3,0-6.08,0-9.12a2.72,2.72,0,0,0-.39-1.67,5.19,5.19,0,0,0-.18.94c0,3.15,0,6.3,0,9.45,0,1.17-.14,2.35-1.53,2.32s-1.49-1.25-1.48-2.4c0-5.57,0-11.14,0-16.71v-1.8Z" transform="translate(-165.77 -152.59)"/>
    <path d="M236.77,155.18a2.38,2.38,0,0,1-2.59,2.46,2.56,2.56,0,0,1-2.52-2.42,2.74,2.74,0,0,1,2.56-2.63A2.6,2.6,0,0,1,236.77,155.18Z" transform="translate(-165.77 -152.59)"/>
  </g>
  <g>
    <path d="M249.54,170.84q0,4.95,0,9.88c0,1.15.3,2.71-1.39,2.72s-1.52-1.61-1.53-2.81c0-5.45,0-10.91,0-16.36v-1.78h-.5c0,2.06,0,4.11,0,6.16,0,.87,0,1.87-1.13,1.89s-1.16-1-1.16-1.85c0-2.19,0-4.38,0-6.57,0-2.53,1.33-3.8,3.87-3.84,1.52,0,3,0,4.56,0,2.1.07,3.45,1.23,3.55,3.28.12,2.52.1,5.06,0,7.58,0,.49-.69,1-1.06,1.44-.38-.47-1-.92-1.08-1.42-.14-1.67-.06-3.37-.06-5.05v-1.58h-.45v2q0,8,0,16c0,.5.14,1.12-.09,1.48a8.68,8.68,0,0,1-1.55,1.47c-.45-.55-1.25-1.09-1.27-1.66-.13-3.09-.06-6.18-.06-9.27,0-.58,0-1.16,0-1.74Z" transform="translate(-165.77 -152.59)"/>
    <path d="M252.44,155.13a2.53,2.53,0,0,1-2.6,2.51,2.45,2.45,0,0,1-2.54-2.36,2.68,2.68,0,0,1,2.48-2.69A2.74,2.74,0,0,1,252.44,155.13Z" transform="translate(-165.77 -152.59)"/>
  </g>
  <g>
    <path d="M268.73,162.61V173.7c0,2.64,0,5.29,0,7.93,0,1.05-.49,1.86-1.53,1.84s-1.5-.79-1.49-1.87c0-3.09,0-6.18,0-9.27a2.34,2.34,0,0,0-.45-1.57c0,.51-.11,1-.11,1.54q0,4.47,0,8.94c0,1.08-.09,2.2-1.43,2.22s-1.46-1.08-1.46-2.17c0-5.68,0-11.36,0-17v-1.79l-.4-.05a4.33,4.33,0,0,0-.2.92c0,2,.06,3.94-.07,5.9,0,.47-.73.9-1.11,1.34-.35-.43-1-.86-1-1.31-.08-2.64-.11-5.28,0-7.92a3.1,3.1,0,0,1,3.22-3c1.8-.07,3.6-.07,5.4,0a3.26,3.26,0,0,1,3.27,3.38c.07,2.47.07,5,0,7.42,0,.49-.65,1-1,1.45-.39-.51-1.08-1-1.11-1.52-.12-2.17,0-4.34,0-6.51Z" transform="translate(-165.77 -152.59)"/>
    <path d="M265.51,152.59a2.75,2.75,0,0,1,2.53,2.66,2.55,2.55,0,0,1-2.71,2.38,2.36,2.36,0,0,1-2.39-2.48A2.57,2.57,0,0,1,265.51,152.59Z" transform="translate(-165.77 -152.59)"/>
  </g>
  <g>
    <path d="M277.22,162.44v6.32c0,.79.11,1.73-1,1.76s-1.09-.89-1.09-1.68c0-2.36,0-4.72,0-7.08a3.18,3.18,0,0,1,3.31-3.46c1.74-.07,3.49-.07,5.23,0a3.21,3.21,0,0,1,3.32,3.46c0,2.36,0,4.72,0,7.09,0,.82,0,1.77-1.1,1.62-.4-.06-.93-1-1-1.56-.11-2.15-.05-4.31-.05-6.46l-.51,0c0,.55-.08,1.1-.08,1.65,0,5.68,0,11.36,0,17,0,1.15-.07,2.37-1.48,2.35s-1.56-1.17-1.54-2.35c0-2.92,0-5.85,0-8.77v-1.58h-.46V180a4.43,4.43,0,0,1-.06,1.83,8.11,8.11,0,0,1-1.53,1.69c-.46-.59-1.3-1.18-1.32-1.78-.12-4.1-.06-8.21-.06-12.31v-7Z" transform="translate(-165.77 -152.59)"/>
    <path d="M281,157.64a2.43,2.43,0,0,1-2.51-2.55,2.57,2.57,0,0,1,2.46-2.5,2.61,2.61,0,0,1,2.61,2.53A2.48,2.48,0,0,1,281,157.64Z" transform="translate(-165.77 -152.59)"/>
  </g>
  <g>
    <path d="M362.36,162.43c0,.57-.08,1.13-.08,1.7,0,5.62,0,11.24,0,16.86,0,1.18,0,2.52-1.52,2.46s-1.5-1.37-1.49-2.56a92.39,92.39,0,0,0-.35-10.1c0,.44-.09.87-.09,1.31,0,3.09,0,6.19,0,9.28,0,1.13-.36,2.13-1.63,2.08s-1.37-1.07-1.36-2.12c0-5.73,0-11.47,0-17.2v-1.71l-.5,0c0,.5-.12,1-.12,1.52,0,1.8.06,3.6-.06,5.39,0,.43-.67.82-1,1.23-.34-.31-1-.62-1-.93a88.62,88.62,0,0,1,.09-8.93c.12-1.55,1.52-2.31,3.06-2.38,1.8-.08,3.6-.08,5.39,0a3.18,3.18,0,0,1,3.26,3.36c0,2.47.07,5,0,7.41,0,.51-.62,1-.95,1.47-.37-.51-1-1-1.05-1.54-.13-1.67,0-3.36-.05-5,0-.51-.08-1-.12-1.54Z" transform="translate(-165.77 -152.59)"/>
    <path d="M359.12,157.64a2.45,2.45,0,0,1-2.59-2.47,2.58,2.58,0,0,1,2.56-2.58A2.61,2.61,0,0,1,361.6,155,2.45,2.45,0,0,1,359.12,157.64Z" transform="translate(-165.77 -152.59)"/>
  </g>
  <g>
    <path d="M316.17,233.41v18c0,.51.13,1.11-.1,1.49a8.71,8.71,0,0,1-1.46,1.52c-.46-.55-1.28-1.08-1.3-1.64-.13-3.2-.06-6.41-.07-9.62,0-.5-.08-1-.12-1.51l-.48,0V248a35.21,35.21,0,0,1-.07,4.71c-.08.63-.92,1.16-1.41,1.74a11.6,11.6,0,0,1-1.45-1.62c-.2-.33,0-.88,0-1.33v-18h-.48c0,1.8,0,3.59,0,5.39a5.12,5.12,0,0,1-.1,1.67c-.15.39-.71.93-1,.88s-1.1-.6-1.11-1c-.07-2.87-.15-5.74.06-8.6a2.87,2.87,0,0,1,2.89-2.61,46.46,46.46,0,0,1,5.9,0,3,3,0,0,1,3,3.08c.12,2.58.11,5.17,0,7.76,0,.47-.69.93-1.06,1.39-.36-.47-1-.94-1-1.43-.11-2.21-.05-4.44-.05-6.66Z" transform="translate(-165.77 -152.59)"/>
    <path d="M312.92,223.49a2.62,2.62,0,0,1,2.55,2.6,2.4,2.4,0,0,1-2.45,2.45,2.56,2.56,0,0,1-2.68-2.43A2.75,2.75,0,0,1,312.92,223.49Z" transform="translate(-165.77 -152.59)"/>
  </g>
  <g>
    <path class="cls-1" d="M206.28,269.29V271c0,5.68,0,11.35,0,17,0,1.11-.17,2.22-1.45,2.23s-1.6-1.11-1.59-2.3c0-2.92,0-5.85,0-8.77V277.6h-.46v2.6c0,2.7,0,5.39,0,8.09,0,1.07-.35,2-1.53,2s-1.43-1-1.43-2.05c0-5.73,0-11.46,0-17.19v-1.79l-.44,0a6.88,6.88,0,0,0-.18,1.09c0,1.92.06,3.83-.07,5.73,0,.47-.71.9-1.09,1.35-.32-.45-.92-.88-.93-1.33-.08-2.64-.09-5.28,0-7.92a3,3,0,0,1,3.06-3,49.11,49.11,0,0,1,5.56,0,3.19,3.19,0,0,1,3.22,3.39c.05,2.48.07,4.95,0,7.42,0,.49-.65,1-1,1.43-.36-.47-1-.92-1-1.4-.11-2.23,0-4.46,0-6.68Z" transform="translate(-165.77 -152.59)"/>
    <path class="cls-1" d="M205.6,262a2.49,2.49,0,0,1-2.66,2.42,2.39,2.39,0,0,1-2.41-2.46,2.55,2.55,0,0,1,2.54-2.58A2.62,2.62,0,0,1,205.6,262Z" transform="translate(-165.77 -152.59)"/>
  </g>
  <g>
    <path class="cls-1" d="M218.41,277.6v10.85c0,1.06-.51,1.85-1.54,1.85s-1.47-.82-1.47-1.88c0-5.79,0-11.59,0-17.38v-1.76l-.44,0c-.05.44-.14.88-.15,1.32,0,1.86.05,3.72-.07,5.57,0,.43-.67.82-1,1.23-.34-.37-1-.72-1-1.1-.08-2.81-.12-5.63,0-8.43a3,3,0,0,1,3.17-2.71c1.8-.07,3.6-.08,5.4,0a3.15,3.15,0,0,1,3.22,3.38c.05,2.47.07,5,0,7.42,0,.5-.63,1-1,1.44-.35-.47-1-.92-1-1.4-.11-2.23-.05-4.47-.05-6.71l-.49,0c0,.54-.12,1.07-.13,1.6v16.37c0,.45.15,1,0,1.34-.34.65-.81,1.62-1.35,1.72-1,.17-1.56-.71-1.57-1.74,0-2.59,0-5.18,0-7.76V277.6Z" transform="translate(-165.77 -152.59)"/>
    <path class="cls-1" d="M216.09,261.9a2.65,2.65,0,0,1,2.67-2.48,2.55,2.55,0,0,1,2.4,2.72,2.4,2.4,0,0,1-2.71,2.32A2.51,2.51,0,0,1,216.09,261.9Z" transform="translate(-165.77 -152.59)"/>
  </g>
  <g>
    <path class="cls-1" d="M424.72,305.76V323.1c0,.51,0,1,0,1.52.06,1.14-.27,2.18-1.54,2.13s-1.5-1.08-1.49-2.22a83,83,0,0,0-.38-10.44c0,.49-.09,1-.1,1.47,0,3,0,6.07,0,9.1,0,1.12-.29,2.15-1.61,2.09s-1.33-1.09-1.33-2.12c0-5.73,0-11.47,0-17.2a2.84,2.84,0,0,0-.47-1.74,9.76,9.76,0,0,0-.15,1.18c0,1.91,0,3.83-.06,5.73,0,.43-.67.83-1,1.24-.34-.29-1-.59-1-.89,0-3-.13-6.08.12-9.09.13-1.47,1.52-2.19,3-2.26q2.7-.12,5.4,0a3.26,3.26,0,0,1,3.32,3.49c0,2.41.08,4.83,0,7.24,0,.53-.7,1-1.08,1.53-.34-.5-.94-1-1-1.48-.11-2.2-.05-4.41-.05-6.61Z" transform="translate(-165.77 -152.59)"/>
    <path class="cls-1" d="M424,298.43a2.52,2.52,0,0,1-2.6,2.5,2.39,2.39,0,0,1-2.48-2.39,2.56,2.56,0,0,1,2.46-2.66A2.68,2.68,0,0,1,424,298.43Z" transform="translate(-165.77 -152.59)"/>
  </g>
  <g>
    <path class="cls-1" d="M343.29,277.61c0,.51-.11,1-.11,1.55,0,3,0,6.07,0,9.1,0,1.06-.27,2-1.48,2s-1.44-1-1.43-2c0-5.74,0-11.47,0-17.2v-1.79l-.4,0a4.39,4.39,0,0,0-.22.92c0,2,.06,3.94-.06,5.9,0,.47-.72.89-1.1,1.34-.34-.44-.95-.87-1-1.31-.09-2.64-.11-5.29,0-7.92a3.09,3.09,0,0,1,3.22-3c1.74-.08,3.48-.07,5.22,0a3.32,3.32,0,0,1,3.44,3.56c0,2.19,0,4.39,0,6.58,0,.85.3,2.05-1,2.07s-1.09-1.28-1.12-2.16c-.05-1.94,0-3.89,0-5.84l-.45,0c0,.54-.07,1.07-.07,1.61,0,5.78,0,11.57,0,17.36,0,1.1-.37,2-1.51,2s-1.6-.89-1.51-2c0-.28,0-.57,0-.85v-8.26c0-.52,0-1-.07-1.56Z" transform="translate(-165.77 -152.59)"/>
    <path class="cls-1" d="M346,262a2.53,2.53,0,0,1-2.65,2.44A2.36,2.36,0,0,1,341,262a2.57,2.57,0,0,1,2.51-2.61A2.7,2.7,0,0,1,346,262Z" transform="translate(-165.77 -152.59)"/>
  </g>
  <g>
    <path class="cls-1" d="M199.22,305.73c0,2.18.07,4.37-.05,6.55,0,.54-.67,1-1,1.56-.35-.53-1-1-1-1.59-.11-2.41-.08-4.83,0-7.25a3.19,3.19,0,0,1,3.36-3.41c1.69-.07,3.38-.06,5.06,0a3.28,3.28,0,0,1,3.46,3.52c0,2.42.07,4.84,0,7.25,0,.51-.72,1-1.11,1.49-.32-.5-.88-1-.91-1.51-.12-1.67,0-3.37-.06-5a2.25,2.25,0,0,0-.49-1.55c0,.56-.08,1.12-.08,1.69q0,8.34,0,16.69c0,1.21.11,2.66-1.54,2.62-1.46,0-1.5-1.37-1.49-2.56a94.64,94.64,0,0,0-.32-10.09,8.8,8.8,0,0,0-.13,1.15q0,4.47,0,8.94c0,1.16,0,2.51-1.48,2.57s-1.49-1.33-1.48-2.47c0-5.63,0-11.25,0-16.87,0-.57-.06-1.14-.09-1.71Z" transform="translate(-165.77 -152.59)"/>
    <path class="cls-1" d="M205.6,298.36a2.49,2.49,0,0,1-2.51,2.57,2.41,2.41,0,0,1-2.56-2.32,2.56,2.56,0,0,1,2.4-2.72A2.62,2.62,0,0,1,205.6,298.36Z" transform="translate(-165.77 -152.59)"/>
  </g>
  <g>
    <path class="cls-1" d="M372,233.05c0,.51-.1,1-.1,1.54,0,1.8.06,3.6-.06,5.39,0,.43-.68.81-1.05,1.21-.33-.31-.94-.62-.95-.94-.05-3-.15-6,.09-8.92.12-1.56,1.53-2.32,3.06-2.38,1.8-.08,3.6-.08,5.39,0a3.19,3.19,0,0,1,3.27,3.35c.05,2.47.07,4.95,0,7.42a1.81,1.81,0,0,1-1,1.4c-1,.18-1.09-.68-1.09-1.46,0-1.68,0-3.37,0-5.06,0-.51-.08-1-.12-1.54l-.46,0v1.71c0,5.68,0,11.35,0,17,0,1.1-.12,2.22-1.4,2.27s-1.64-1.06-1.63-2.26a90.7,90.7,0,0,0-.36-10.41c0,.45-.09.9-.09,1.35,0,3,0,6.07,0,9.1,0,1.1-.21,2.19-1.5,2.22s-1.47-1-1.46-2.16c0-5.73,0-11.47,0-17.2,0-.56-.06-1.13-.09-1.69Z" transform="translate(-165.77 -152.59)"/>
    <path class="cls-1" d="M378.24,225.82a2.51,2.51,0,0,1-2.63,2.46,2.41,2.41,0,0,1-2.45-2.44,2.57,2.57,0,0,1,2.51-2.61A2.65,2.65,0,0,1,378.24,225.82Z" transform="translate(-165.77 -152.59)"/>
  </g>
  <g>
    <path class="cls-1" d="M391.05,241.4v7.68c0,1.07,0,2.14,0,3.2s-.52,1.84-1.55,1.83-1.45-.85-1.45-1.9c0-5.68,0-11.36,0-17v-2.08l-.45,0a12.18,12.18,0,0,0-.14,1.34c0,1.86,0,3.72-.07,5.57,0,.42-.57.8-.88,1.21-.39-.32-1.11-.62-1.12-1a85.29,85.29,0,0,1,.05-8.76c.12-1.63,1.52-2.46,3.13-2.53,1.8-.07,3.61-.07,5.4,0a3.1,3.1,0,0,1,3.2,3.22c.06,2.53.07,5.07,0,7.59,0,.49-.65.95-1,1.42-.35-.47-1-.93-1-1.42-.1-2.23,0-4.46,0-6.69l-.5,0c0,.54-.12,1.07-.12,1.61q0,8.19,0,16.37c0,.4,0,.79,0,1.18.06,1-.3,1.9-1.4,1.91s-1.58-.89-1.58-2c0-2.7,0-5.4,0-8.1V241.4Z" transform="translate(-165.77 -152.59)"/>
    <path class="cls-1" d="M391.27,223.23a2.55,2.55,0,0,1,2.53,2.59,2.37,2.37,0,0,1-2.42,2.45,2.5,2.5,0,0,1-2.66-2.42A2.67,2.67,0,0,1,391.27,223.23Z" transform="translate(-165.77 -152.59)"/>
  </g>
  <g>
    <path class="cls-1" d="M292.83,305.77c0,2.12,0,4.24,0,6.36,0,.79,0,1.73-1.11,1.69s-1-1-1-1.76c0-2.31,0-4.61,0-6.92a3.23,3.23,0,0,1,3.41-3.55c1.68-.07,3.37-.06,5.06,0,2.19.09,3.36,1.33,3.39,3.56s.08,4.73,0,7.09c0,.55-.64,1.07-1,1.61-.36-.52-1-1-1-1.58-.12-2.17,0-4.36,0-6.54l-.48-.05c0,.54-.13,1.07-.13,1.6q0,8.19,0,16.38c0,.45.15,1,0,1.33-.34.66-.8,1.63-1.34,1.72-1,.18-1.55-.7-1.56-1.74,0-2.81,0-5.63,0-8.44v-2.46h-.49v5.62c0,1.68,0,3.37,0,5.06,0,1.11-.42,2-1.54,2s-1.49-.95-1.48-2.05c0-5.9,0-11.81,0-17.72,0-.41-.06-.83-.09-1.25Z" transform="translate(-165.77 -152.59)"/>
    <path class="cls-1" d="M299.17,298.4a2.38,2.38,0,0,1-2.51,2.53,2.53,2.53,0,0,1-2.57-2.35,2.68,2.68,0,0,1,2.47-2.7A2.56,2.56,0,0,1,299.17,298.4Z" transform="translate(-165.77 -152.59)"/>
  </g>
  <g>
    <path class="cls-1" d="M221.94,305.71c0,.57-.09,1.14-.09,1.71,0,5.46,0,10.91,0,16.37,0,1.21.45,3-1.5,2.94-1.69,0-1.46-1.68-1.46-2.91,0-3.24,0-6.48,0-9.73h-.47v2.54c0,2.7,0,5.4,0,8.1,0,1.1-.4,2-1.52,2s-1.5-.91-1.5-2c0-5.74,0-11.48,0-17.22v-1.79l-.39,0a7.44,7.44,0,0,0-.2,1.13c0,1.91.05,3.83-.07,5.74,0,.44-.64.84-1,1.26-.36-.41-1-.81-1-1.23q-.13-4.05,0-8.1a3,3,0,0,1,3-2.88,49.79,49.79,0,0,1,5.73,0,3.1,3.1,0,0,1,3.09,3.33c.05,2.48.07,4.95,0,7.43,0,.5-.61,1-.94,1.47-.37-.52-1-1-1-1.55-.14-1.68,0-3.37-.06-5.06,0-.51-.06-1-.1-1.53Z" transform="translate(-165.77 -152.59)"/>
    <path class="cls-1" d="M221.17,298.49a2.41,2.41,0,0,1-2.62,2.44,2.5,2.5,0,0,1-2.46-2.45,2.66,2.66,0,0,1,2.56-2.6A2.57,2.57,0,0,1,221.17,298.49Z" transform="translate(-165.77 -152.59)"/>
  </g>
  <g>
    <path class="cls-1" d="M424.72,269.3v4c0,4.95,0,9.9,0,14.84,0,1.14-.24,2.2-1.5,2.19s-1.55-1-1.54-2.17c0-3,0-6,0-8.94V277.6h-.5v6.67c0,1.4,0,2.81,0,4.21,0,1-.45,1.85-1.54,1.82s-1.39-.88-1.39-1.91c0-5.85,0-11.69,0-17.54a2.56,2.56,0,0,0-.45-1.62,7.22,7.22,0,0,0-.17,1.12c0,1.91,0,3.83-.06,5.73,0,.45-.63.87-1,1.3-.37-.39-1.05-.78-1.06-1.18-.08-2.75-.1-5.51,0-8.25a3,3,0,0,1,3.05-2.81,54.27,54.27,0,0,1,5.56,0,3.19,3.19,0,0,1,3.2,3.25c.07,2.53.08,5.06,0,7.58,0,.49-.67.94-1,1.41-.35-.47-1-.93-1-1.42-.11-2.21-.05-4.44-.05-6.66Z" transform="translate(-165.77 -152.59)"/>
    <path class="cls-1" d="M421.44,259.42A2.68,2.68,0,0,1,424,262a2.52,2.52,0,0,1-2.45,2.47,2.39,2.39,0,0,1-2.63-2.4A2.55,2.55,0,0,1,421.44,259.42Z" transform="translate(-165.77 -152.59)"/>
  </g>
  <g>
    <path class="cls-1" d="M296.41,277.68v9.24c0,.51.17,1.1,0,1.5-.37.71-.9,1.74-1.49,1.83-1,.15-1.48-.75-1.48-1.82,0-4.89,0-9.79,0-14.68,0-1.49,0-3,0-4.46h-.58c0,1.45,0,2.9,0,4.35a17.06,17.06,0,0,1-.1,2.86,1.33,1.33,0,0,1-1,.82c-.35,0-1-.54-1-.86a85.29,85.29,0,0,1,.05-8.76c.12-1.63,1.49-2.48,3.11-2.55,1.8-.08,3.61-.08,5.4,0a3.15,3.15,0,0,1,3.24,3.37c.05,2.42.07,4.84,0,7.25,0,.56-.58,1.5-1,1.55-1.1.13-1.08-.83-1.07-1.65,0-2.13,0-4.26,0-6.39l-.47,0c-.05.53-.14,1.06-.14,1.59q0,8.19,0,16.37c0,.45.15,1,0,1.33-.34.66-.8,1.64-1.34,1.74-1,.19-1.56-.69-1.57-1.73q0-4,0-8.1v-2.81Z" transform="translate(-165.77 -152.59)"/>
    <path class="cls-1" d="M296.72,259.42a2.56,2.56,0,0,1,2.45,2.68,2.39,2.39,0,0,1-2.67,2.36,2.53,2.53,0,0,1-2.42-2.51A2.68,2.68,0,0,1,296.72,259.42Z" transform="translate(-165.77 -152.59)"/>
  </g>
  <g>
    <path class="cls-1" d="M346.72,305.78v7.51c0,3.77,0,7.53,0,11.3,0,1.14-.28,2.19-1.53,2.17s-1.52-1.05-1.5-2.2a88.18,88.18,0,0,0-.37-10.5c-.05.42-.14.83-.15,1.25,0,2.86,0,5.73,0,8.6a3.32,3.32,0,0,1-.09,1.49c-.33.55-.92,1.29-1.41,1.29s-1-.78-1.34-1.33c-.2-.34-.05-.88-.05-1.33,0-5.51,0-11,0-16.52v-1.77l-.42,0a5.08,5.08,0,0,0-.2.94c0,2,0,3.94-.06,5.9,0,.45-.62.87-1,1.3-.38-.39-1.08-.76-1.09-1.16-.08-2.75-.1-5.5,0-8.25a3,3,0,0,1,3-2.82,54.27,54.27,0,0,1,5.56,0,3.24,3.24,0,0,1,3.24,3.4c0,2.47.07,4.95,0,7.42,0,.49-.67.95-1,1.42-.37-.46-1-.91-1.05-1.39-.12-2.21-.05-4.44-.05-6.66Z" transform="translate(-165.77 -152.59)"/>
    <path class="cls-1" d="M346,298.43a2.54,2.54,0,0,1-2.6,2.5,2.38,2.38,0,0,1-2.49-2.39,2.57,2.57,0,0,1,2.46-2.66A2.69,2.69,0,0,1,346,298.43Z" transform="translate(-165.77 -152.59)"/>
  </g>
  <g>
    <path class="cls-1" d="M465.47,233.1c0,1.86.06,3.71,0,5.56,0,.94.58,2.5-1.12,2.46-1.54,0-.95-1.52-1-2.42-.07-2.07,0-4.16,0-6.24a3.24,3.24,0,0,1,3.43-3.53c1.69-.05,3.38-.06,5.06,0a3.18,3.18,0,0,1,3.36,3.42c.05,2.42.08,4.84,0,7.26,0,.54-.65,1-1,1.58-.35-.54-1-1.06-1-1.61-.11-2.16,0-4.34,0-6.51l-.49,0c0,.54-.12,1.08-.12,1.62q0,8.1,0,16.2c0,.4,0,.79,0,1.19.06,1.06-.18,2.06-1.4,2.06s-1.56-1-1.56-2.16c0-3,0-6,0-8.94V241.4h-.49v5.16c0,1.69,0,3.37,0,5.06,0,1.21-.09,2.49-1.57,2.47S466,252.84,466,251.7c0-5.63,0-11.26,0-16.88V233.1Z" transform="translate(-165.77 -152.59)"/>
    <path class="cls-1" d="M469.35,228.27a2.51,2.51,0,0,1-2.63-2.46,2.68,2.68,0,0,1,2.59-2.58,2.56,2.56,0,0,1,2.5,2.46A2.38,2.38,0,0,1,469.35,228.27Z" transform="translate(-165.77 -152.59)"/>
  </g>
  <g>
    <path class="cls-1" d="M393.52,305.85V308c0,5.23,0,10.47,0,15.7,0,.51.15,1.12-.08,1.49a9.92,9.92,0,0,1-1.56,1.62c-.43-.56-1.21-1.1-1.24-1.68-.14-2.7-.06-5.4-.06-8.1v-2.95l-.45,0a7.45,7.45,0,0,0-.16,1.14c0,2.93,0,5.85,0,8.78,0,1.21.29,2.85-1.5,2.79S387,325,387,323.82q0-8.1,0-16.2v-1.79h-.47V311a4.87,4.87,0,0,1-.06,1.67c-.19.48-.72.84-1.09,1.25-.38-.41-1.06-.81-1.08-1.24-.09-2.69-.13-5.4,0-8.09a3.18,3.18,0,0,1,3.34-3c1.74-.06,3.49-.07,5.23,0a3.15,3.15,0,0,1,3.3,3.15c.14,2.58.11,5.18,0,7.76,0,.46-.72.9-1.11,1.35-.35-.48-1-1-1-1.46-.11-2.17-.05-4.35-.05-6.53Z" transform="translate(-165.77 -152.59)"/>
    <path class="cls-1" d="M390.26,295.88a2.66,2.66,0,0,1,2.56,2.61,2.43,2.43,0,0,1-2.47,2.44,2.53,2.53,0,0,1-2.67-2.44A2.74,2.74,0,0,1,390.26,295.88Z" transform="translate(-165.77 -152.59)"/>
  </g>
  <g>
    <path class="cls-1" d="M436.84,314.14v9.74c0,.51.16,1.14-.08,1.49a3,3,0,0,1-1.63,1.31c-.33.06-1.17-.89-1.22-1.43-.16-1.73-.07-3.48-.07-5.22,0-4.77,0-9.53-.39-14.35a7.1,7.1,0,0,0-.21,1.1c0,1.91.05,3.83-.06,5.73,0,.46-.61.88-.94,1.32-.38-.45-1.06-.88-1.07-1.34-.11-2.58-.09-5.17,0-7.75a3.07,3.07,0,0,1,3.11-3.13,51.56,51.56,0,0,1,5.56,0A3.15,3.15,0,0,1,443,305c0,2.41.08,4.83,0,7.24,0,.54-.67,1-1,1.56-.34-.53-.95-1.06-1-1.61-.11-2.16,0-4.33,0-6.49l-.51,0c0,.54-.11,1.08-.11,1.62v16.35c0,.39,0,.79,0,1.18.07,1-.3,1.89-1.39,1.91s-1.6-.87-1.6-2c0-3,0-6.07,0-9.1,0-.55,0-1.09-.07-1.63Z" transform="translate(-165.77 -152.59)"/>
    <path class="cls-1" d="M437,295.88a2.57,2.57,0,0,1,2.58,2.55,2.42,2.42,0,0,1-2.39,2.5,2.49,2.49,0,0,1-2.68-2.39A2.6,2.6,0,0,1,437,295.88Z" transform="translate(-165.77 -152.59)"/>
  </g>
  <g>
    <path class="cls-1" d="M175.12,269.41v4.84q0,6.57,0,13.15a3.41,3.41,0,0,1-.15,1.65c-.33.53-1,1.22-1.5,1.17a1.92,1.92,0,0,1-1.24-1.41c-.13-2.64-.07-5.28-.07-7.92v-3.23h-.62v3c0,2.53,0,5.06,0,7.58,0,1.09-.24,2-1.44,2.05s-1.52-1-1.52-2V271.08a2.73,2.73,0,0,0-.38-1.67c0,.41-.1.83-.1,1.24,0,1.8.07,3.61-.07,5.4,0,.47-.73.9-1.13,1.35-.36-.42-1-.83-1-1.27-.1-2.63-.13-5.28,0-7.92a3.18,3.18,0,0,1,3.22-3.07c1.79-.09,3.6-.08,5.39,0a3.18,3.18,0,0,1,3.31,3.16c.14,2.58.11,5.17,0,7.75,0,.46-.73.9-1.12,1.36-.35-.49-1-1-1-1.46-.11-2.17,0-4.35,0-6.53Z" transform="translate(-165.77 -152.59)"/>
    <path class="cls-1" d="M174.41,262.06a2.57,2.57,0,0,1-5.14-.06,2.57,2.57,0,1,1,5.14.06Z" transform="translate(-165.77 -152.59)"/>
  </g>
  <g>
    <path class="cls-1" d="M471.55,305.9v6.71q0,6,0,12c0,1.08-.22,2.19-1.53,2.18s-1.45-1.09-1.44-2.2c0-3,0-6,0-8.94,0-.51-.08-1-.12-1.52l-.5,0v4.23c0,2.08,0,4.16,0,6.24,0,1.13-.18,2.19-1.49,2.17s-1.48-1.14-1.48-2.23V305.86h-.49c0,1.79,0,3.57,0,5.36a4.35,4.35,0,0,1-.08,1.66,1.7,1.7,0,0,1-1.16.92c-.29,0-1-.57-1-.9,0-2.91-.13-5.84.12-8.74.15-1.71,1.59-2.51,3.28-2.56s3.37-.06,5.06,0a3.27,3.27,0,0,1,3.46,3.38c.11,2.47.09,4.95,0,7.41,0,.51-.65,1-1,1.49-.4-.5-1.11-1-1.14-1.5-.13-2.17-.06-4.34-.06-6.52Z" transform="translate(-165.77 -152.59)"/>
    <path class="cls-1" d="M470.85,298.45a2.58,2.58,0,0,1-5.15.08,2.58,2.58,0,1,1,5.15-.08Z" transform="translate(-165.77 -152.59)"/>
  </g>
  <g>
    <path class="cls-1" d="M370.86,269.31c0,1.81,0,3.62,0,5.42a5.12,5.12,0,0,1-.1,1.67c-.13.39-.68,1-.93.91-.42-.08-1.07-.59-1.08-.94-.08-2.86-.17-5.74,0-8.6a2.91,2.91,0,0,1,3.05-2.62,51.75,51.75,0,0,1,5.57,0,3.09,3.09,0,0,1,3.15,3.27c.06,2.53.07,5.06,0,7.59,0,.47-.67.92-1,1.38-.34-.49-.95-1-1-1.47-.11-2.21,0-4.43,0-6.65l-.48,0c-.05.55-.12,1.1-.12,1.65q0,8.19,0,16.37c0,.45,0,.9,0,1.35,0,1-.49,1.81-1.42,1.64A2.28,2.28,0,0,1,375,288.6c-.15-3.09-.07-6.19-.08-9.28,0-.57-.06-1.15-.09-1.72l-.43,0v6.3c0,1.29,0,2.59,0,3.88s-.07,2.49-1.56,2.47-1.47-1.25-1.47-2.4c0-5.57,0-11.14,0-16.7v-1.85Z" transform="translate(-165.77 -152.59)"/>
    <path class="cls-1" d="M377.18,262a2.38,2.38,0,0,1-2.53,2.51,2.55,2.55,0,0,1-2.57-2.36,2.72,2.72,0,0,1,2.5-2.68A2.57,2.57,0,0,1,377.18,262Z" transform="translate(-165.77 -152.59)"/>
  </g>
  <g>
    <path class="cls-1" d="M433.23,269.27c0,1.86.07,3.71,0,5.57,0,.92.62,2.5-1.09,2.46-1.55,0-.94-1.53-1-2.42-.08-2.08-.05-4.16,0-6.24a3.19,3.19,0,0,1,3.25-3.51c1.8-.08,3.6-.08,5.4,0a3.11,3.11,0,0,1,3.19,3.22c.06,2.53.08,5.06,0,7.58,0,.49-.64,1-1,1.43-.35-.47-1-.92-1-1.41-.11-2.22-.05-4.46-.05-6.69l-.51,0c0,.53-.11,1.06-.11,1.59,0,5.73,0,11.46,0,17.19,0,1.08,0,2.23-1.37,2.28s-1.64-1.07-1.63-2.25c0-3.47,0-6.94,0-10.41h-.45v1.67c0,2.87,0,5.73,0,8.6,0,1.16-.15,2.35-1.5,2.4s-1.52-1.15-1.52-2.31c0-5.62,0-11.24,0-16.86v-1.83Z" transform="translate(-165.77 -152.59)"/>
    <path class="cls-1" d="M439.6,262a2.42,2.42,0,0,1-2.61,2.45,2.45,2.45,0,0,1-2.46-2.44,2.6,2.6,0,0,1,2.54-2.6A2.57,2.57,0,0,1,439.6,262Z" transform="translate(-165.77 -152.59)"/>
  </g>
  <g>
    <path class="cls-1" d="M175.12,305.82v17.8c0,.5.15,1.11-.07,1.49a11,11,0,0,1-1.52,1.69c-.46-.6-1.29-1.17-1.31-1.79-.14-3-.07-6.07-.07-9.1v-1.77l-.47-.05a10.89,10.89,0,0,0-.14,1.28c0,3.09,0,6.18,0,9.27,0,1.06-.16,2.06-1.37,2.11s-1.59-1-1.59-2.1V305.83h-.49c0,2,.09,4.08-.05,6.11,0,.67-.62,1.78-1.08,1.84-1.13.16-1.16-.89-1.16-1.77,0-2.25,0-4.5,0-6.74a3.41,3.41,0,0,1,3.69-3.68c1.57,0,3.15,0,4.72,0A3.31,3.31,0,0,1,177.8,305c.1,2.47.09,5,0,7.42,0,.49-.68,1-1,1.45-.38-.52-1.06-1-1.1-1.57-.12-2.16,0-4.34,0-6.51Z" transform="translate(-165.77 -152.59)"/>
    <path class="cls-1" d="M174.42,298.37a2.58,2.58,0,0,1-5.15.25,2.58,2.58,0,1,1,5.15-.25Z" transform="translate(-165.77 -152.59)"/>
  </g>
  <g>
    <path class="cls-1" d="M347.75,233.18v17.76c0,.45,0,.9,0,1.35-.06,1-.44,1.86-1.55,1.82s-1.43-.83-1.42-1.89c0-3.2,0-6.41,0-9.61a1.68,1.68,0,0,0-.43-1.18,7,7,0,0,0-.17,1.09q0,4.47,0,8.94c0,1.18.18,2.69-1.5,2.63s-1.45-1.56-1.45-2.74c0-5.46,0-10.91,0-16.36V233.2h-.49v5.39a5.42,5.42,0,0,1-.09,1.67c-.14.39-.7.94-1,.89s-1.12-.58-1.13-.92c0-2.92-.12-5.85.12-8.75.14-1.63,1.51-2.45,3.13-2.53s3.49-.06,5.23,0a3.28,3.28,0,0,1,3.44,3.4c.1,2.47.08,4.95,0,7.42,0,.5-.66,1-1,1.47-.39-.51-1.09-1-1.12-1.53-.13-2.17,0-4.35,0-6.52Z" transform="translate(-165.77 -152.59)"/>
    <path class="cls-1" d="M344.56,228.28a2.51,2.51,0,0,1-2.66-2.45,2.58,2.58,0,0,1,5.15-.15A2.48,2.48,0,0,1,344.56,228.28Z" transform="translate(-165.77 -152.59)"/>
  </g>
  <g>
    <path class="cls-1" d="M464.52,269.41c0,2.06.08,4.13,0,6.19,0,.62-.6,1.65-1,1.71-1.15.17-1.2-.86-1.2-1.74,0-2.25,0-4.5,0-6.74a3.4,3.4,0,0,1,3.65-3.71c1.58,0,3.15,0,4.73,0,2.2.07,3.52,1.24,3.61,3.4.11,2.47.09,5,0,7.42,0,.5-.67,1-1,1.48-.39-.51-1.09-1-1.12-1.53-.13-2.16-.06-4.34-.06-6.52h-.47v17.74c0,.45,0,.9,0,1.35,0,1-.43,1.86-1.54,1.83s-1.43-.83-1.42-1.88c0-3.21,0-6.41,0-9.61a1.75,1.75,0,0,0-.43-1.19,6.76,6.76,0,0,0-.18,1.08c0,3,0,6.07,0,9.11,0,1.17.06,2.52-1.5,2.47s-1.46-1.42-1.46-2.57V269.38Z" transform="translate(-165.77 -152.59)"/>
    <path class="cls-1" d="M470.85,262a2.58,2.58,0,0,1-5.15,0,2.58,2.58,0,1,1,5.15,0Z" transform="translate(-165.77 -152.59)"/>
  </g>
  <g>
    <path class="cls-1" d="M378,305.72c0,.57-.09,1.15-.09,1.72,0,5.79,0,11.59,0,17.38,0,1-.26,1.9-1.37,1.94s-1.58-.86-1.56-1.95c0-.39,0-.79,0-1.18,0-2.64,0-5.29,0-7.93a2.59,2.59,0,0,0-.44-1.62c0,.56-.08,1.11-.08,1.67,0,2.81,0,5.63,0,8.44,0,1.18,0,2.52-1.48,2.55s-1.55-1.28-1.55-2.48c0-5.57,0-11.13,0-16.7v-1.79l-.39,0a11.82,11.82,0,0,0-.14,1.32c0,1.86,0,3.72-.08,5.56,0,.43-.69.82-1.05,1.22-.35-.36-1-.72-1-1.09-.08-2.81-.12-5.62,0-8.43a3.05,3.05,0,0,1,3.17-2.72c1.79-.08,3.6-.08,5.39,0a3.13,3.13,0,0,1,3.24,3.35c.06,2.48.08,5,0,7.43,0,.5-.62,1-1,1.46-.37-.51-1-1-1.05-1.55-.12-2.18,0-4.37,0-6.56Z" transform="translate(-165.77 -152.59)"/>
    <path class="cls-1" d="M377.18,298.5a2.39,2.39,0,0,1-2.62,2.43,2.54,2.54,0,0,1-2.48-2.46,2.71,2.71,0,0,1,2.59-2.59A2.57,2.57,0,0,1,377.18,298.5Z" transform="translate(-165.77 -152.59)"/>
  </g>
  <g>
    <path class="cls-1" d="M393.52,269.39v2.13c0,5.23,0,10.47,0,15.7,0,.5.15,1.12-.08,1.49a9.92,9.92,0,0,1-1.56,1.62c-.43-.56-1.21-1.11-1.24-1.69-.14-2.69-.06-5.4-.06-8.1v-3l-.43,0a5.68,5.68,0,0,0-.18,1c0,2.87,0,5.74,0,8.61,0,1.26.52,3.17-1.49,3.11S387,288.3,387,287c0-5.29,0-10.58,0-15.87v-1.79h-.47v5.13a4.87,4.87,0,0,1-.06,1.67c-.19.48-.72.83-1.1,1.25-.37-.42-1.06-.82-1.07-1.24-.09-2.7-.13-5.4,0-8.1a3.17,3.17,0,0,1,3.34-2.94c1.74-.07,3.49-.07,5.23,0a3.13,3.13,0,0,1,3.3,3.15c.14,2.58.11,5.17,0,7.76,0,.46-.73.9-1.11,1.35-.35-.49-1-1-1-1.46-.11-2.18-.05-4.36-.05-6.54Z" transform="translate(-165.77 -152.59)"/>
    <path class="cls-1" d="M390.27,264.46a2.52,2.52,0,0,1-2.59-2.51,2.73,2.73,0,0,1,2.66-2.53,2.69,2.69,0,0,1,2.49,2.52A2.45,2.45,0,0,1,390.27,264.46Z" transform="translate(-165.77 -152.59)"/>
  </g>
  <g>
    <path class="cls-1" d="M190.73,305.9v7.37c0,3.77,0,7.54,0,11.3,0,1.14-.28,2.19-1.54,2.19s-1.5-1.05-1.48-2.19c0-3,0-6,0-8.94v-1.58l-.47,0c0,.51-.11,1-.11,1.52,0,3,0,6.07,0,9.11,0,1.12-.21,2.16-1.54,2.11s-1.35-1.1-1.35-2.13q0-8.6,0-17.2c0-.57-.07-1.14-.1-1.71l-.49,0v5.4a3.92,3.92,0,0,1,0,1.5,5,5,0,0,1-1.1,1.22c-.36-.37-1-.73-1-1.11-.06-2.8-.1-5.62.08-8.42a3,3,0,0,1,3.12-2.74c1.79-.08,3.6-.08,5.39,0a3.29,3.29,0,0,1,3.33,3.34c.08,2.47.09,4.95,0,7.42,0,.52-.73,1-1.13,1.51-.35-.49-1-1-1-1.47-.11-2.17,0-4.35,0-6.53Z" transform="translate(-165.77 -152.59)"/>
    <path class="cls-1" d="M187.44,295.88a2.75,2.75,0,0,1,2.6,2.59,2.57,2.57,0,0,1-2.65,2.46,2.36,2.36,0,0,1-2.45-2.42A2.58,2.58,0,0,1,187.44,295.88Z" transform="translate(-165.77 -152.59)"/>
  </g>
  <g>
    <path class="cls-1" d="M315.57,269.32c0,.58-.07,1.16-.07,1.74q0,8,0,16c0,.45,0,.9,0,1.35,0,1-.37,1.88-1.48,1.86s-1.45-.82-1.44-1.87c0-3.1,0-6.19,0-9.29,0-.51-.05-1-.07-1.55H312v4.2c0,2.09,0,4.17,0,6.25,0,1.11-.14,2.22-1.43,2.23S309,289.13,309,288c0-5.57,0-11.14,0-16.71v-1.81l-.37-.05c0,.54-.09,1.07-.1,1.6,0,1.69.08,3.38-.07,5.06,0,.47-.74.89-1.14,1.33-.36-.43-1-.85-1-1.29-.1-2.64-.12-5.29,0-7.92a3.18,3.18,0,0,1,3.24-3.05c1.8-.08,3.61-.07,5.4,0a3.07,3.07,0,0,1,3.21,3c.14,2.64.11,5.29,0,7.93,0,.44-.64.87-1,1.3-.38-.46-1.07-.9-1.09-1.38-.12-2.23-.05-4.48-.05-6.72Z" transform="translate(-165.77 -152.59)"/>
    <path class="cls-1" d="M312.42,259.42a2.62,2.62,0,0,1,2.36,2.77,2.41,2.41,0,0,1-2.77,2.27,2.54,2.54,0,0,1-2.34-2.6A2.74,2.74,0,0,1,312.42,259.42Z" transform="translate(-165.77 -152.59)"/>
  </g>
  <g>
    <path class="cls-1" d="M331.15,269.38v1.77q0,8.1,0,16.2c0,.51.15,1.13-.08,1.49a8.78,8.78,0,0,1-1.55,1.49c-.45-.55-1.27-1.08-1.29-1.65-.13-3.09-.06-6.19-.06-9.28v-1.82l-.45,0a10.92,10.92,0,0,0-.16,1.28c0,3.15,0,6.3,0,9.45,0,1.08-.24,2-1.45,2s-1.46-1-1.46-2.05q0-8.61,0-17.22c0-.58-.05-1.16-.09-1.73l-.44,0c0,2.08,0,4.16,0,6.24,0,.89,0,1.9-1.19,1.76-.43-.06-1-1.1-1-1.71-.13-2.25-.08-4.5,0-6.75,0-2.44,1.35-3.71,3.8-3.75,1.57,0,3.15,0,4.72,0a3.32,3.32,0,0,1,3.48,3.38c.09,2.47.08,4.95,0,7.42,0,.51-.66,1-1,1.47-.39-.5-1.1-1-1.13-1.5-.13-2.17-.06-4.35-.06-6.52Z" transform="translate(-165.77 -152.59)"/>
    <path class="cls-1" d="M330.45,262a2.53,2.53,0,0,1-2.67,2.43,2.41,2.41,0,0,1-2.45-2.6,2.63,2.63,0,0,1,2.54-2.44A2.75,2.75,0,0,1,330.45,262Z" transform="translate(-165.77 -152.59)"/>
  </g>
  <g>
    <path class="cls-1" d="M405.65,277.57c0,.5-.1,1-.1,1.52,0,3.09,0,6.18,0,9.27,0,1-.27,1.9-1.38,1.93s-1.51-.89-1.5-2q0-8.68,0-17.37c0-.57-.06-1.13-.1-1.7l-.47,0c0,2.09,0,4.19,0,6.28,0,.89,0,1.9-1.19,1.74-.43-.06-1-1.1-1-1.72-.12-2.24-.09-4.49,0-6.74.05-2.45,1.34-3.7,3.8-3.74,1.52,0,3,0,4.55,0a3.39,3.39,0,0,1,3.65,3.55c.07,2.41.08,4.83,0,7.25,0,.5-.64,1-1,1.48-.4-.5-1.12-1-1.15-1.48-.13-2.17-.06-4.35-.06-6.52h-.46v17.9c0,.45.16,1,0,1.33a12.24,12.24,0,0,1-1.52,1.71c-.48-.59-1.33-1.16-1.36-1.77-.14-3.14-.06-6.29-.07-9.44,0-.52,0-1-.07-1.55Z" transform="translate(-165.77 -152.59)"/>
    <path class="cls-1" d="M408.46,261.91a2.55,2.55,0,0,1-2.38,2.55,2.4,2.4,0,0,1-2.73-2.31,2.61,2.61,0,0,1,2.4-2.73A2.76,2.76,0,0,1,408.46,261.91Z" transform="translate(-165.77 -152.59)"/>
  </g>
  <g>
    <path class="cls-1" d="M455.88,269.29v17.43c0,.39,0,.79,0,1.18,0,1.1.05,2.37-1.42,2.39s-1.5-1.2-1.5-2.33c0-2.92,0-5.84,0-8.76v-1.59l-.47,0c0,.51-.09,1-.09,1.51,0,3,0,6.07,0,9.1,0,1.09-.3,2.05-1.44,2.09s-1.59-1-1.58-2.12c0-5.68,0-11.36,0-17v-1.79h-.5c0,1.87,0,3.73,0,5.6,0,.92.43,2.35-1.07,2.39s-1.09-1.4-1.12-2.31c-.05-2.14,0-4.28,0-6.41a3.24,3.24,0,0,1,3.31-3.48c1.8-.08,3.6-.08,5.4,0a3.1,3.1,0,0,1,3.16,3.25c.07,2.53.08,5.06,0,7.59,0,.48-.67.93-1,1.4-.35-.48-1-.94-1-1.43-.11-2.23,0-4.46,0-6.68Z" transform="translate(-165.77 -152.59)"/>
    <path class="cls-1" d="M452.68,264.46a2.54,2.54,0,0,1-2.6-2.51,2.72,2.72,0,0,1,2.66-2.53,2.58,2.58,0,0,1,2.45,2.51A2.37,2.37,0,0,1,452.68,264.46Z" transform="translate(-165.77 -152.59)"/>
  </g>
  <g>
    <path class="cls-1" d="M363.36,233.22v18c0,.45.15,1-.06,1.32a11,11,0,0,1-1.44,1.62c-.5-.57-1.41-1.12-1.43-1.71-.15-3.14-.07-6.3-.07-9.44v-1.62l-.44,0a12,12,0,0,0-.15,1.33c0,3.09,0,6.18,0,9.27,0,1.12-.17,2.17-1.51,2.15s-1.38-1.06-1.38-2.1c0-5.79,0-11.58,0-17.37a2.32,2.32,0,0,0-.48-1.57c0,.51-.1,1-.1,1.52,0,1.8.06,3.6-.06,5.39,0,.43-.69.82-1.06,1.23-.37-.35-1-.71-1.05-1.07-.05-2.86-.09-5.73.11-8.58.12-1.68,1.45-2.51,3.05-2.61,1.8-.1,3.6-.08,5.4,0a3.31,3.31,0,0,1,3.36,3.48c.06,2.41.08,4.83,0,7.25,0,.53-.72,1-1.1,1.55-.36-.54-1-1.06-1-1.62-.12-2.12-.05-4.24-.05-6.36Z" transform="translate(-165.77 -152.59)"/>
    <path class="cls-1" d="M360.14,228.28a2.38,2.38,0,0,1-2.57-2.48,2.58,2.58,0,0,1,2.55-2.57,2.78,2.78,0,0,1,2.55,2.47A2.55,2.55,0,0,1,360.14,228.28Z" transform="translate(-165.77 -152.59)"/>
  </g>
  <g>
    <path class="cls-1" d="M402.09,305.75c0,2.11.08,4.22,0,6.32,0,.61-.6,1.64-1,1.7-1.17.16-1.17-.89-1.18-1.75,0-2.2,0-4.39,0-6.58,0-2.57,1.3-3.83,3.84-3.87,1.58,0,3.15,0,4.72,0a3.33,3.33,0,0,1,3.44,3.41c.08,2.47.08,4.94,0,7.41,0,.5-.67,1-1,1.45-.39-.51-1.08-1-1.12-1.53-.12-2.17-.05-4.34-.05-6.51h-.46v18c0,.51.16,1.13-.08,1.49a8.44,8.44,0,0,1-1.54,1.5c-.45-.55-1.29-1.08-1.31-1.64-.13-3.09-.06-6.18-.07-9.27v-1.83l-.42-.05a8.74,8.74,0,0,0-.17,1.25c0,3.15,0,6.29,0,9.44,0,1.07-.2,2-1.43,2.06s-1.47-1-1.46-2c0-5.74,0-11.47,0-17.21v-1.77Z" transform="translate(-165.77 -152.59)"/>
    <path class="cls-1" d="M408.46,298.53a2.57,2.57,0,0,1-2.71,2.4,2.37,2.37,0,0,1-2.39-2.64,2.58,2.58,0,0,1,2.55-2.41A2.76,2.76,0,0,1,408.46,298.53Z" transform="translate(-165.77 -152.59)"/>
  </g>
  <g>
    <path class="cls-1" d="M448.9,305.85v5.34a3.71,3.71,0,0,1-.08,1.5c-.22.46-.74.77-1.14,1.15-.33-.38-.94-.75-.95-1.14-.08-2.75-.12-5.51,0-8.26A3.11,3.11,0,0,1,450,301.6c1.8-.08,3.6-.08,5.4,0a3.1,3.1,0,0,1,3.19,3.22c.08,2.52.09,5.05,0,7.58,0,.49-.64,1-1,1.44-.36-.52-1-1-1-1.56-.12-2.18,0-4.37,0-6.55l-.46-.05c0,.54-.13,1.07-.13,1.61,0,5.45,0,10.9,0,16.35a3.73,3.73,0,0,1-.05,1.5,10.16,10.16,0,0,1-1.32,1.65c-.51-.55-1.43-1.09-1.45-1.66-.15-3.09-.08-6.18-.08-9.27a3.16,3.16,0,0,0-.4-1.83,6.76,6.76,0,0,0-.16,1c0,3.15,0,6.3,0,9.45,0,1.18-.18,2.32-1.56,2.29s-1.47-1.13-1.47-2.25c0-5.62,0-11.24,0-16.86v-1.8Z" transform="translate(-165.77 -152.59)"/>
    <path class="cls-1" d="M452.63,295.88a2.58,2.58,0,0,1,2.56,2.57,2.37,2.37,0,0,1-2.4,2.48,2.57,2.57,0,0,1-2.71-2.4A2.75,2.75,0,0,1,452.63,295.88Z" transform="translate(-165.77 -152.59)"/>
  </g>
  <g>
    <path class="cls-1" d="M406.61,241.41q0,5,0,9.92c0,.5.16,1.1-.06,1.49s-.86,1.21-1.34,1.24-1.12-.61-1.45-1.1a3,3,0,0,1-.13-1.49q0-8.26,0-16.54v-1.78h-.48c0,1.72,0,3.44,0,5.16a4.62,4.62,0,0,1-.06,1.67c-.19.48-.72.82-1.1,1.22-.36-.42-1-.82-1-1.25-.1-2.64-.11-5.29,0-7.93a3.05,3.05,0,0,1,2.88-3,39.26,39.26,0,0,1,6.23,0,2.86,2.86,0,0,1,2.73,2.94c.09,2.64.09,5.29,0,7.93,0,.44-.62.87-1,1.31-.37-.46-1.06-.89-1.08-1.37-.12-2.24-.05-4.48-.05-6.73l-.45-.05c0,.53-.12,1.06-.12,1.59,0,5.46,0,10.91,0,16.37a4.37,4.37,0,0,1-.09,1.67,7,7,0,0,1-1.33,1.46c-.49-.51-1.37-1-1.41-1.53-.16-2.41-.08-4.83-.08-7.25v-3.94Z" transform="translate(-165.77 -152.59)"/>
    <path class="cls-1" d="M406.87,228.28a2.56,2.56,0,0,1-2.58-2.54,2.75,2.75,0,0,1,2.69-2.51,2.61,2.61,0,0,1,2.43,2.54A2.4,2.4,0,0,1,406.87,228.28Z" transform="translate(-165.77 -152.59)"/>
  </g>
  <g>
    <path class="cls-1" d="M422.17,241.48v4.93c0,1.85,0,3.71,0,5.56,0,1.14-.2,2.17-1.51,2.14s-1.43-1.06-1.43-2.1V233.18h-.51c0,1.8,0,3.59,0,5.38a4.39,4.39,0,0,1-.08,1.67,1.71,1.71,0,0,1-1.15.92,1.37,1.37,0,0,1-1-.9c0-3-.08-6,.19-8.9.16-1.66,1.61-2.35,3.22-2.41s3.37-.05,5.06,0a3.3,3.3,0,0,1,3.46,3.38c.1,2.47.09,5,0,7.42,0,.51-.65,1-1,1.48-.4-.5-1.11-1-1.14-1.5-.14-2.17-.06-4.35-.06-6.52h-.46V251c0,.45,0,.9,0,1.35-.06,1-.47,1.85-1.57,1.81s-1.43-.84-1.41-1.9c0-3.2,0-6.41,0-9.61,0-.38-.07-.75-.1-1.13Z" transform="translate(-165.77 -152.59)"/>
    <path class="cls-1" d="M422.35,228.28a2.45,2.45,0,0,1-2.42-2.49,2.69,2.69,0,0,1,2.62-2.56,2.72,2.72,0,0,1,2.52,2.66A2.54,2.54,0,0,1,422.35,228.28Z" transform="translate(-165.77 -152.59)"/>
  </g>
  <g>
    <path class="cls-1" d="M331.15,305.87v18c0,.45.13,1-.07,1.32a11.07,11.07,0,0,1-1.46,1.61c-.49-.58-1.37-1.13-1.4-1.72-.14-3.15-.06-6.3-.06-9.45v-1.59l-.47,0a12.26,12.26,0,0,0-.14,1.33c0,3.15,0,6.3,0,9.45,0,1.11-.31,2-1.51,2s-1.4-.94-1.4-1.94V307.77a4.12,4.12,0,0,0-.36-2,5.06,5.06,0,0,0-.17.93c0,2,.05,3.94-.07,5.9,0,.45-.67.85-1,1.28-.39-.39-1.11-.77-1.12-1.17-.09-2.75-.13-5.52,0-8.26a3,3,0,0,1,3.08-2.82,54.47,54.47,0,0,1,5.57,0,3.25,3.25,0,0,1,3.24,3.25q.15,3.79,0,7.59c0,.49-.69.95-1.06,1.43-.38-.47-1.06-.92-1.09-1.41-.11-2.17,0-4.36,0-6.54Z" transform="translate(-165.77 -152.59)"/>
    <path class="cls-1" d="M330.45,298.49a2.55,2.55,0,0,1-2.67,2.44,2.41,2.41,0,0,1-2.45-2.61,2.65,2.65,0,0,1,2.54-2.44A2.75,2.75,0,0,1,330.45,298.49Z" transform="translate(-165.77 -152.59)"/>
  </g>
  <g>
    <path class="cls-1" d="M453.46,241.41V244c0,2.69,0,5.39,0,8.09,0,1.07-.37,2-1.54,2s-1.45-.94-1.45-2c0-5.73,0-11.46,0-17.2,0-.6,0-1.2,0-1.8l-.42-.06a6.06,6.06,0,0,0-.2,1.1c0,1.91.06,3.82-.07,5.72,0,.47-.7.9-1.08,1.35-.33-.44-.92-.87-.93-1.32-.09-2.63-.09-5.28,0-7.92a3,3,0,0,1,3.05-3,51.56,51.56,0,0,1,5.56,0,3.18,3.18,0,0,1,3.22,3.39c0,2.47.06,5,0,7.42,0,.49-.65.95-1,1.43-.36-.47-1-.93-1-1.41-.11-2.22-.05-4.45-.05-6.68l-.51,0c0,.53-.09,1.06-.09,1.59v16.53c0,.39.14.86,0,1.16a16.86,16.86,0,0,1-1.38,1.8c-.53-.61-1.49-1.2-1.52-1.84-.16-3-.08-6.06-.08-9.1v-1.79Z" transform="translate(-165.77 -152.59)"/>
    <path class="cls-1" d="M456.24,225.74a2.48,2.48,0,0,1-2.54,2.54,2.44,2.44,0,0,1-2.54-2.36,2.58,2.58,0,0,1,2.44-2.69A2.62,2.62,0,0,1,456.24,225.74Z" transform="translate(-165.77 -152.59)"/>
  </g>
  <g>
    <path class="cls-1" d="M312,314.06v7.32a19.81,19.81,0,0,1-.07,3.7c-.13.64-.93,1.16-1.42,1.73a11,11,0,0,1-1.44-1.63c-.2-.33-.06-.88-.06-1.33v-18h-.47c0,1.81,0,3.61,0,5.41a4.79,4.79,0,0,1-.1,1.66c-.15.39-.72.94-1,.89s-1.09-.62-1.1-1a84.85,84.85,0,0,1,.07-8.59,2.93,2.93,0,0,1,3.06-2.63,54.27,54.27,0,0,1,5.56,0,3.08,3.08,0,0,1,3.15,3.11c.13,2.58.12,5.17,0,7.76,0,.47-.69.92-1.06,1.38-.36-.48-1-.94-1-1.44-.12-2.21-.05-4.43-.05-6.65l-.43,0c0,.56-.1,1.13-.1,1.69q0,8,0,16c0,.45,0,.9,0,1.35,0,1.06-.33,2-1.55,1.95s-1.38-.92-1.37-1.94c0-3,0-6.08,0-9.12v-1.62Z" transform="translate(-165.77 -152.59)"/>
    <path class="cls-1" d="M312.15,300.93a2.54,2.54,0,0,1-2.48-2.46,2.74,2.74,0,0,1,2.6-2.59,2.61,2.61,0,0,1,2.52,2.63A2.41,2.41,0,0,1,312.15,300.93Z" transform="translate(-165.77 -152.59)"/>
  </g>
  <g>
    <path class="cls-1" d="M362.28,305.74v1.72c0,5.68,0,11.36,0,17,0,1.09-.08,2.23-1.39,2.26s-1.63-1.08-1.62-2.27c0-3.47,0-6.93,0-10.4h-.45V317c0,2.53,0,5.06,0,7.59,0,1.12-.27,2.19-1.52,2.22s-1.49-1-1.49-2.17c0-5.68,0-11.35,0-17v-1.83l-.41-.06a6.77,6.77,0,0,0-.21,1.09c0,1.91.06,3.82-.06,5.73,0,.47-.7.9-1.07,1.35-.33-.44-.93-.86-.94-1.31-.09-2.63-.09-5.28,0-7.92a3.07,3.07,0,0,1,3.22-3c1.79-.08,3.6-.08,5.39,0A3.16,3.16,0,0,1,365,305c0,2.47.07,4.95,0,7.41,0,.49-.65,1-1,1.43-.35-.46-1-.92-1-1.4-.11-2.23-.05-4.46-.05-6.69Z" transform="translate(-165.77 -152.59)"/>
    <path class="cls-1" d="M359.08,300.93a2.44,2.44,0,0,1-2.55-2.51,2.54,2.54,0,0,1,5.07,0A2.46,2.46,0,0,1,359.08,300.93Z" transform="translate(-165.77 -152.59)"/>
  </g>
  <g>
    <path class="cls-1" d="M277.22,305.73c0,2,0,4.1,0,6.14,0,.81.25,1.9-1,1.93s-1.08-1.16-1.09-2q0-3.36,0-6.74a3.19,3.19,0,0,1,3.3-3.47c1.74-.07,3.48-.07,5.22,0a3.21,3.21,0,0,1,3.34,3.45c0,2.42.08,4.84,0,7.25,0,.53-.67,1-1,1.55-.33-.54-.93-1.07-1-1.63-.12-2.15-.05-4.31-.05-6.47l-.51,0c0,.55-.08,1.09-.08,1.64,0,5.68,0,11.35,0,17,0,1.14-.05,2.37-1.47,2.36s-1.57-1.15-1.55-2.34c0-2.92,0-5.84,0-8.76v-1.6h-.46v8.71c0,.73,0,1.46,0,2.19,0,1-.49,1.84-1.57,1.81s-1.41-.86-1.4-1.91c0-5.78,0-11.57,0-17.36v-1.77Z" transform="translate(-165.77 -152.59)"/>
    <path class="cls-1" d="M283.6,298.51a2.48,2.48,0,0,1-2.65,2.42,2.43,2.43,0,0,1-2.42-2.47,2.57,2.57,0,0,1,2.55-2.58A2.62,2.62,0,0,1,283.6,298.51Z" transform="translate(-165.77 -152.59)"/>
  </g>
  <g>
    <path class="cls-1" d="M265.15,314.09v7.85c0,1,0,2,0,3s-.44,1.83-1.53,1.79-1.35-.8-1.35-1.78c0-5.12,0-10.23,0-15.35v-3.9h-.62v5.55a3.46,3.46,0,0,1,0,1.33,6.24,6.24,0,0,1-1.08,1.24c-.35-.36-1-.71-1-1.08,0-2.86-.1-5.73.1-8.59.12-1.69,1.46-2.49,3.06-2.59,1.8-.1,3.6-.08,5.4,0a3.32,3.32,0,0,1,3.34,3.5c.05,2.41.08,4.84,0,7.25,0,.52-.72,1-1.11,1.52-.35-.49-1-1-1-1.47-.11-2.17,0-4.35,0-6.53l-.49,0v18c0,.39.14.87,0,1.16-.4.65-.89,1.62-1.45,1.7-1,.15-1.54-.67-1.53-1.76,0-3.09,0-6.18,0-9.27v-1.62Z" transform="translate(-165.77 -152.59)"/>
    <path class="cls-1" d="M268,298.37a2.55,2.55,0,0,1-2.38,2.55,2.38,2.38,0,0,1-2.71-2.31,2.56,2.56,0,0,1,2.39-2.72A2.72,2.72,0,0,1,268,298.37Z" transform="translate(-165.77 -152.59)"/>
  </g>
  <g>
    <path class="cls-1" d="M249.54,314.13v6a47.15,47.15,0,0,1-.08,5.05c-.06.58-.86,1.08-1.32,1.62a9.24,9.24,0,0,1-1.46-1.55c-.22-.38-.07-1-.07-1.5q0-8.08,0-16.18v-1.79h-.5c0,2.06,0,4.11,0,6.16,0,.87,0,1.87-1.13,1.89s-1.16-1-1.16-1.84c0-2.2,0-4.39,0-6.58,0-2.52,1.33-3.8,3.87-3.84,1.52,0,3,0,4.55,0,2.11.07,3.46,1.23,3.56,3.28.12,2.52.1,5.06,0,7.58,0,.49-.69,1-1.06,1.44-.38-.53-1-1-1.08-1.58-.15-1.62-.06-3.26-.06-4.89v-1.57h-.45V308q0,7.93,0,15.85c0,.51.14,1.13-.09,1.49a8.68,8.68,0,0,1-1.55,1.47c-.44-.55-1.25-1.09-1.27-1.66-.13-3.08-.06-6.18-.06-9.27,0-.58,0-1.16,0-1.73Z" transform="translate(-165.77 -152.59)"/>
    <path class="cls-1" d="M252.44,298.41a2.53,2.53,0,0,1-2.59,2.52,2.46,2.46,0,0,1-2.55-2.36,2.68,2.68,0,0,1,2.48-2.69A2.74,2.74,0,0,1,252.44,298.41Z" transform="translate(-165.77 -152.59)"/>
  </g>
  <g>
    <path class="cls-1" d="M441.36,233.19v18c0,.39.14.87,0,1.16-.4.65-.88,1.62-1.45,1.71-1,.15-1.54-.66-1.54-1.75,0-3.09,0-6.18,0-9.28v-1.62l-.41,0a12.3,12.3,0,0,0-.15,1.33c0,3.09,0,6.18,0,9.28,0,1.11-.2,2.16-1.53,2.12s-1.37-1.06-1.36-2.1q0-8.61,0-17.21c0-.57-.06-1.15-.09-1.72h-.52v5.54a4.13,4.13,0,0,1-.05,1.5c-.19.44-.69,1-1.05,1a1.43,1.43,0,0,1-1-1c-.06-2.86-.1-5.74.09-8.59.12-1.69,1.46-2.5,3.06-2.6a53.83,53.83,0,0,1,5.39,0,3.3,3.3,0,0,1,3.35,3.48c.05,2.31,0,4.62,0,6.92,0,.88,0,1.91-1.15,1.78-.41,0-1-1.09-1-1.71-.13-2.06,0-4.13,0-6.19Z" transform="translate(-165.77 -152.59)"/>
    <path class="cls-1" d="M438.15,223.23a2.75,2.75,0,0,1,2.52,2.66,2.55,2.55,0,0,1-2.71,2.38,2.35,2.35,0,0,1-2.38-2.48A2.57,2.57,0,0,1,438.15,223.23Z" transform="translate(-165.77 -152.59)"/>
  </g>
  <g>
    <path class="cls-1" d="M237.46,305.77v18c0,.51.15,1.11-.07,1.5A9.39,9.39,0,0,1,236,326.8c-.47-.53-1.32-1.05-1.34-1.6-.14-3.15-.07-6.3-.08-9.45,0-.57-.06-1.14-.1-1.71l-.48,0v7.29c0,1.18,0,2.36,0,3.54s-.46,1.86-1.49,1.86-1.51-.83-1.51-1.87v-8.1a100.19,100.19,0,0,0-.4-10.94c0,.49-.08,1-.09,1.48,0,1.75.06,3.5-.06,5.23,0,.46-.67.87-1,1.3-.39-.45-1.1-.88-1.11-1.35-.11-2.58-.11-5.17,0-7.76a3.16,3.16,0,0,1,3.13-3.14,54.47,54.47,0,0,1,5.57,0,3.11,3.11,0,0,1,3.17,3.26q.13,3.79,0,7.59c0,.48-.68.93-1,1.39-.35-.48-1-.94-1-1.43-.11-2.22-.05-4.44-.05-6.67Z" transform="translate(-165.77 -152.59)"/>
    <path class="cls-1" d="M236.77,298.42a2.38,2.38,0,0,1-2.54,2.51,2.57,2.57,0,0,1-2.57-2.37,2.75,2.75,0,0,1,2.51-2.68A2.59,2.59,0,0,1,236.77,298.42Z" transform="translate(-165.77 -152.59)"/>
  </g>
  <g>
    <path class="cls-1" d="M190.73,269.38v18c0,.4,0,.79,0,1.18-.05,1-.58,1.91-1.6,1.7a2.27,2.27,0,0,1-1.33-1.73c-.14-3.08-.07-6.18-.07-9.27v-1.66l-.41,0a9.5,9.5,0,0,0-.17,1.29c0,3.15,0,6.3,0,9.45,0,1.07-.25,2-1.47,2s-1.42-1-1.42-2.06c0-5.73,0-11.46,0-17.2v-1.75l-.59,0a8,8,0,0,1,0,2c-.51,2,1.25,4.45-1,6.16-2.43-1.7-.62-4.19-1.13-6.25a8.39,8.39,0,0,1,0-2.35c.1-2.39,1.34-3.62,3.7-3.68,1.57,0,3.15,0,4.72,0a3.38,3.38,0,0,1,3.58,3.61c.05,2.36.08,4.73,0,7.08,0,.55-.68,1.06-1,1.59-.38-.52-1.05-1-1.08-1.57-.13-2.15-.06-4.31-.06-6.47Z" transform="translate(-165.77 -152.59)"/>
    <path class="cls-1" d="M190,262a2.56,2.56,0,0,1-2.67,2.44,2.37,2.37,0,0,1-2.43-2.6,2.58,2.58,0,0,1,2.51-2.44A2.75,2.75,0,0,1,190,262Z" transform="translate(-165.77 -152.59)"/>
  </g>
  <g>
    <path class="cls-1" d="M230.49,269.43c0,2,0,4,0,6,0,.84.09,1.88-1.1,1.9s-1.15-1-1.14-1.84c0-2.26,0-4.51,0-6.76a3.32,3.32,0,0,1,3.52-3.64c1.69-.05,3.38-.06,5.06,0a3.09,3.09,0,0,1,3.29,3.13c.11,2.58.1,5.18,0,7.76,0,.46-.69.9-1.07,1.35-.34-.48-1-1-1-1.46-.11-2.21-.05-4.42-.05-6.63l-.46,0c0,.57-.1,1.13-.1,1.69q0,8,0,16c0,.45,0,.9,0,1.35,0,1.07-.3,2-1.53,2s-1.39-.91-1.38-1.94c0-3,0-6.07,0-9.11a2.72,2.72,0,0,0-.39-1.67,5,5,0,0,0-.18.94c0,3.15,0,6.3,0,9.45,0,1.17-.14,2.35-1.53,2.32S231,289,231,287.88c0-5.57,0-11.14,0-16.71v-1.79Z" transform="translate(-165.77 -152.59)"/>
    <path class="cls-1" d="M236.77,262a2.37,2.37,0,0,1-2.59,2.45,2.54,2.54,0,0,1-2.52-2.41,2.73,2.73,0,0,1,2.56-2.63A2.6,2.6,0,0,1,236.77,262Z" transform="translate(-165.77 -152.59)"/>
  </g>
  <g>
    <path class="cls-1" d="M249.54,277.67c0,3.29,0,6.59,0,9.88,0,1.15.3,2.71-1.39,2.72s-1.52-1.61-1.53-2.81c0-5.46,0-10.91,0-16.36v-1.78h-.5c0,2.05,0,4.11,0,6.16,0,.87,0,1.87-1.13,1.89s-1.16-1-1.16-1.85c0-2.19,0-4.38,0-6.58,0-2.52,1.33-3.79,3.87-3.83,1.52,0,3,0,4.56,0a3.3,3.3,0,0,1,3.55,3.29c.12,2.52.1,5.06,0,7.58,0,.49-.69,1-1.06,1.43-.38-.47-1-.91-1.08-1.41-.14-1.67-.06-3.37-.06-5.05v-1.58h-.45v2q0,8,0,16c0,.51.14,1.13-.09,1.49a8.68,8.68,0,0,1-1.55,1.47c-.45-.55-1.25-1.09-1.27-1.66-.13-3.09-.06-6.18-.06-9.27,0-.58,0-1.16,0-1.74Z" transform="translate(-165.77 -152.59)"/>
    <path class="cls-1" d="M252.44,262a2.52,2.52,0,0,1-2.6,2.5,2.43,2.43,0,0,1-2.54-2.36,2.67,2.67,0,0,1,2.48-2.68A2.74,2.74,0,0,1,252.44,262Z" transform="translate(-165.77 -152.59)"/>
  </g>
  <g>
    <path class="cls-1" d="M268.73,269.43v11.1c0,2.64,0,5.28,0,7.93,0,1.05-.49,1.85-1.53,1.84s-1.5-.79-1.49-1.87c0-3.09,0-6.18,0-9.28a2.33,2.33,0,0,0-.45-1.56c0,.51-.11,1-.11,1.53q0,4.47,0,8.94c0,1.09-.09,2.2-1.43,2.23s-1.46-1.08-1.46-2.17c0-5.68,0-11.36,0-17v-1.79l-.4-.05a4.33,4.33,0,0,0-.2.92c0,2,.06,3.94-.07,5.9,0,.47-.73.89-1.11,1.34-.35-.44-1-.86-1-1.31-.08-2.64-.11-5.29,0-7.92a3.1,3.1,0,0,1,3.22-3c1.8-.07,3.6-.08,5.4,0a3.26,3.26,0,0,1,3.27,3.37c.07,2.48.07,5,0,7.42,0,.5-.65,1-1,1.46-.39-.51-1.08-1-1.11-1.52-.12-2.17,0-4.34,0-6.52Z" transform="translate(-165.77 -152.59)"/>
    <path class="cls-1" d="M265.51,259.42a2.74,2.74,0,0,1,2.53,2.65,2.55,2.55,0,0,1-2.71,2.39,2.36,2.36,0,0,1-2.39-2.48A2.57,2.57,0,0,1,265.51,259.42Z" transform="translate(-165.77 -152.59)"/>
  </g>
  <g>
    <path class="cls-1" d="M277.22,269.27v6.32c0,.79.11,1.72-1,1.76s-1.09-.89-1.09-1.68c0-2.36,0-4.73,0-7.09a3.18,3.18,0,0,1,3.31-3.45c1.74-.07,3.49-.07,5.23,0A3.21,3.21,0,0,1,287,268.6c0,2.36,0,4.72,0,7.08,0,.83,0,1.78-1.1,1.63-.4-.06-.93-1-1-1.56-.11-2.15-.05-4.31-.05-6.46l-.51,0c0,.55-.08,1.1-.08,1.65,0,5.68,0,11.36,0,17,0,1.15-.07,2.36-1.48,2.35s-1.56-1.17-1.54-2.35c0-2.92,0-5.85,0-8.77v-1.58h-.46v9.21a4.43,4.43,0,0,1-.06,1.83,8.11,8.11,0,0,1-1.53,1.69c-.46-.59-1.3-1.18-1.32-1.79-.12-4.09-.06-8.2-.06-12.3v-7Z" transform="translate(-165.77 -152.59)"/>
    <path class="cls-1" d="M281,264.46a2.42,2.42,0,0,1-2.51-2.54,2.56,2.56,0,0,1,2.46-2.5A2.61,2.61,0,0,1,283.6,262,2.47,2.47,0,0,1,281,264.46Z" transform="translate(-165.77 -152.59)"/>
  </g>
  <g>
    <path class="cls-1" d="M362.36,269.26c0,.56-.08,1.13-.08,1.7,0,5.62,0,11.24,0,16.86,0,1.17,0,2.52-1.52,2.46s-1.5-1.37-1.49-2.56a92.31,92.31,0,0,0-.35-10.1c0,.44-.09.87-.09,1.31q0,4.63,0,9.28c0,1.13-.36,2.13-1.63,2.08s-1.37-1.07-1.36-2.12c0-5.74,0-11.47,0-17.2v-1.72l-.5,0c0,.51-.12,1-.12,1.53,0,1.8.06,3.6-.06,5.39,0,.43-.67.82-1,1.22-.34-.3-1-.61-1-.92a88.62,88.62,0,0,1,.09-8.93c.12-1.55,1.52-2.32,3.06-2.38,1.8-.08,3.6-.08,5.39,0A3.18,3.18,0,0,1,365,268.5c0,2.47.07,4.94,0,7.41,0,.5-.62,1-.95,1.47-.37-.51-1-1-1.05-1.54-.13-1.67,0-3.37-.05-5,0-.52-.08-1-.12-1.54Z" transform="translate(-165.77 -152.59)"/>
    <path class="cls-1" d="M359.12,264.46a2.44,2.44,0,0,1-2.59-2.46,2.58,2.58,0,0,1,2.56-2.58,2.61,2.61,0,0,1,2.51,2.45A2.44,2.44,0,0,1,359.12,264.46Z" transform="translate(-165.77 -152.59)"/>
  </g>
</svg>
